<svg id="undefined" xmlns="http://www.w3.org/2000/svg" viewBox="0 0 64 58" width="64" height="64" class="vds-svg"><path id="undefined" class="cls-1" d="M63.49,27.05H61.12c4-7.7,3.31-16.29-2.1-21.84a17.09,17.09,0,0,0-24.57,0L32,7.77,29.46,5.21A17,17,0,0,0,17.18,0h0A17,17,0,0,0,4.88,5.21c-5.38,5.52-6,13.82-2,21.84H.51a.51.51,0,1,0,0,1H3.44c.43.76.88,1.52,1.39,2.27,5.52,8.14,25.92,26.74,26.78,27.53A.5.5,0,0,0,32,58a.52.52,0,0,0,.35-.14c.21-.19,21-19.59,26.77-27.5.54-.75,1-1.52,1.47-2.29h3a.51.51,0,1,0,0-1ZM5.61,5.92A16,16,0,0,1,17.17,1h0a16,16,0,0,1,11.56,4.9l2.86,2.93a.52.52,0,0,0,.73,0l2.85-2.93a16.09,16.09,0,0,1,23.12,0h0c4.47,4.59,6.44,12.66,1.68,21.13h-15a.51.51,0,0,0-.46.3L39.57,37.87,35.14,16.36a.51.51,0,0,0-1-.05l-4.6,15.42-4.72-11.4a.51.51,0,0,0-.9-.08l-4.33,6.8H4.05C.73,20.67-.49,12.18,5.61,5.92ZM58.25,29.76C52.92,37,34.68,54.23,32,56.8c-2.77-2.53-21.22-19.56-26.28-27-.37-.54-.72-1.11-1-1.7H19.88a.49.49,0,0,0,.42-.24l4-6.21,4.9,11.82a.5.5,0,0,0,.49.31.51.51,0,0,0,.47-.36l4.43-14.85,4.33,21a.51.51,0,0,0,.44.4h.06a.51.51,0,0,0,.46-.3l5.4-11.62H59.39C59,28.63,58.66,29.19,58.25,29.76Z"></path></svg>