<svg id="undefined" xmlns="http://www.w3.org/2000/svg" viewBox="0 0 64 64" width="64" height="64" class="vds-svg"><path id="undefined" class="cls-2" d="M63.85,54l-8.52-8.53a4.82,4.82,0,0,0,1.47-3.42,4.72,4.72,0,0,0-1.35-3.35l-1.13-1.13A4.68,4.68,0,0,0,55,35.14a4.57,4.57,0,0,0-1.34-3.35l-9.9-9.9A6.39,6.39,0,0,0,39.21,20H30L17.83,7.77A4.47,4.47,0,0,0,15,6.65h-.3a4.05,4.05,0,0,0-4,4,3.78,3.78,0,0,0,1.15,2.86L21,22.59A113,113,0,0,0,7.89,36,3.23,3.23,0,0,1,5.2,37.25H.5a.5.5,0,0,0,0,1H5.2a4.21,4.21,0,0,0,3.49-1.69,112.26,112.26,0,0,1,13-13.26l2.33,2.31a.5.5,0,0,0,.7-.72l-3.81-3.78,1-4.85A.5.5,0,0,0,21,16l-.91,4.24-2.16-2.15,1-5a.5.5,0,0,0-.39-.59A.51.51,0,0,0,18,13l-.92,4.35-4.54-4.5a2.83,2.83,0,0,1-.85-2.15,3,3,0,0,1,3-3H15a3.46,3.46,0,0,1,2.15.85l32.9,33.1-7,2a.5.5,0,0,0,.14,1l.14,0,7.8-2.2a.48.48,0,0,0,.34-.35.47.47,0,0,0-.13-.48l-1.71-1.72a5.21,5.21,0,0,0,.67.06,4.69,4.69,0,0,0,3.4-1.47l1,1a3.75,3.75,0,0,1-.15,5.35L53.25,43.4a.49.49,0,0,0-.7.7l10,10c-1.88.45-6.44,1.37-8.47.13-1.59-.95-6.48-6.13-8.14-7.91l2.42-.68a.5.5,0,0,0-.28-1l-3.2.9a.52.52,0,0,0-.34.34.5.5,0,0,0,.11.48c.28.3,6.87,7.47,8.91,8.69a7.09,7.09,0,0,0,3.59.75,27,27,0,0,0,6.51-1,.48.48,0,0,0,.34-.36A.46.46,0,0,0,63.85,54ZM50.31,38.84a3.74,3.74,0,0,1-2.64-1.05h0L31,21h8.19a5.39,5.39,0,0,1,3.85,1.55l9.9,9.9a3.56,3.56,0,0,1,1,2.65A3.7,3.7,0,0,1,50.31,38.84ZM57.54,52l-1.7-1.8a.5.5,0,0,1,.72-.68l1.7,1.8a.49.49,0,0,1,0,.7.45.45,0,0,1-.34.14A.48.48,0,0,1,57.54,52ZM28.85,30.5,26,27.6a.49.49,0,1,1,.7-.7l2.9,2.9a.48.48,0,0,1,0,.7.48.48,0,0,1-.7,0ZM43.8,40.6a4.63,4.63,0,0,1-1.35,3.3,4.72,4.72,0,0,1-3.35,1.35H24.68A18,18,0,0,1,20,52.75H24.6c7.29,0,8.27-5.92,8.31-6.17a.49.49,0,0,1,.57-.42.49.49,0,0,1,.41.57c0,.07-1.15,7-9.29,7H18.92a14.92,14.92,0,0,1-9.62,3.6H.5a.5.5,0,0,1,0-1H9.3a14,14,0,0,0,9.07-3.43l.08-.06a17.05,17.05,0,0,0,5.37-8.23.49.49,0,0,1,.48-.38H39.1a3.76,3.76,0,0,0,2.65-1,3.74,3.74,0,0,0,0-5.2l-.11-.1a3.56,3.56,0,0,0-2.64-1H28.8a.5.5,0,0,1,0-1h5.49L30.85,32.4a.49.49,0,0,1,.7-.7l4.16,4.15H39a4.54,4.54,0,0,1,3.35,1.35l.11.1A4.64,4.64,0,0,1,43.8,40.6Z"></path></svg>