<svg id="undefined" xmlns="http://www.w3.org/2000/svg" viewBox="0 0 56 64" width="64" height="64" class="vds-svg"><path id="undefined" class="cls-1" d="M33.25,43.08a.5.5,0,0,0,.18-.76l-.83-1.08a3,3,0,0,0-1.3-1,2.78,2.78,0,0,0-.78-.18,3.06,3.06,0,0,0-1.4.16,1.85,1.85,0,0,1-.72.13,2.05,2.05,0,0,1-.72-.14A3.07,3.07,0,0,0,26.26,40a2.58,2.58,0,0,0-.62.11,3.07,3.07,0,0,0-1.53,1.11l-.81,1.08a.53.53,0,0,0-.09.42.49.49,0,0,0,.28.33l.45.22a9.86,9.86,0,0,0,4.4,1.22h0a10.12,10.12,0,0,0,4.47-1.25Zm-4.88.44a8.19,8.19,0,0,1-3.9-1.08l.44-.59a2,2,0,0,1,1-.75,1.31,1.31,0,0,1,.4-.07,2.23,2.23,0,0,1,1,.14,3.18,3.18,0,0,0,1,.19,3.35,3.35,0,0,0,1-.17,2.27,2.27,0,0,1,1-.13,1.83,1.83,0,0,1,.5.12,2,2,0,0,1,.88.68l.45.58A8.86,8.86,0,0,1,28.37,43.52Zm3.47,2.4a.49.49,0,0,1-.07.7l-.48.38a3.63,3.63,0,0,1-1.42.53,3.81,3.81,0,0,1-.59,0H27.52l-.32,0a3.79,3.79,0,0,1-1.43-.41l-.85-.64a.5.5,0,0,1,.61-.79l.77.59a3,3,0,0,0,1,.26h2a2,2,0,0,0,.43,0,2.59,2.59,0,0,0,1-.36l.41-.34A.49.49,0,0,1,31.84,45.92Zm-.67-11.84a.5.5,0,0,1,.37.6c-.1.42-.37.6-.85.92l-.54.37a3.77,3.77,0,0,1-3.92,0l-.54-.37c-.48-.32-.75-.5-.85-.92a.5.5,0,0,1,1-.23,2,2,0,0,0,.43.32l.56.38a2.77,2.77,0,0,0,2.76,0l.56-.38a3.4,3.4,0,0,0,.44-.31A.5.5,0,0,1,31.17,34.08ZM16.36,26.26a5.84,5.84,0,0,1-.88-.62,1.79,1.79,0,0,0-1.08-.37h0a1.8,1.8,0,0,0-1,.37.5.5,0,1,1-.61-.79,2.76,2.76,0,0,1,3.4,0A4.84,4.84,0,0,0,18.24,26a5.43,5.43,0,0,0,1.67.09,14.17,14.17,0,0,0,2.32-.57l1.35-.38.32.95-1.4.4A13.33,13.33,0,0,1,20,27a5.55,5.55,0,0,1-.69,0A5.87,5.87,0,0,1,18,26.94c-.13,0-.25-.08-.38-.12a1.63,1.63,0,0,0-1.24.83.48.48,0,0,1-.46.32.39.39,0,0,1-.18,0,.5.5,0,0,1-.29-.65A2.09,2.09,0,0,1,16.36,26.26Zm24.4-.61a6.38,6.38,0,0,1-.86.61,2.09,2.09,0,0,1,.89,1,.5.5,0,0,1-.29.65.39.39,0,0,1-.18,0,.51.51,0,0,1-.47-.32,1.61,1.61,0,0,0-1.23-.83c-.13,0-.25.09-.38.12a5.93,5.93,0,0,1-1.29.14,5.74,5.74,0,0,1-.7,0,13.7,13.7,0,0,1-2.5-.59l-1.39-.4a.51.51,0,0,1-.35-.62.5.5,0,0,1,.62-.34l1.39.39a14.43,14.43,0,0,0,2.32.57A5.49,5.49,0,0,0,38,26a5,5,0,0,0,2.11-1.08,2.89,2.89,0,0,1,1.79-.61,2.8,2.8,0,0,1,1.63.58.5.5,0,0,1-.61.79,1.8,1.8,0,0,0-1-.37A1.72,1.72,0,0,0,40.76,25.65ZM7.7,23.29c-.6-.84-3.83-5.47-4.11-8.24A.51.51,0,0,1,4,14.5a.52.52,0,0,1,.55.45C4.79,17,7,20.51,8.06,22.05a39.47,39.47,0,0,1,2.27-4.95A31.42,31.42,0,0,1,19,6.62a28.26,28.26,0,0,1,5.85-3.39.5.5,0,1,1,.4.92,27,27,0,0,0-5.65,3.27,30.6,30.6,0,0,0-8.4,10.16A36.75,36.75,0,0,0,8.7,23.21a53.82,53.82,0,0,0,1.83,14.25.5.5,0,0,1-.35.61l-.13,0a.5.5,0,0,1-.48-.37A54.56,54.56,0,0,1,7.7,23.29ZM25.33.33A.5.5,0,0,1,26,0c9.2,3.25,16.57,10.22,21.29,20.15.35.75.65,1.41.89,2,1-1.49,3.32-5.07,3.53-7.19a.52.52,0,0,1,.55-.45.51.51,0,0,1,.45.55c-.29,2.9-3.82,7.84-4.17,8.32A54.25,54.25,0,0,1,46.9,37.58a.49.49,0,0,1-.48.37h-.13a.5.5,0,0,1-.35-.61,53.64,53.64,0,0,0,1.57-14.16c-.27-.63-.66-1.51-1.15-2.56C41.75,10.92,34.59,4.13,25.64,1A.51.51,0,0,1,25.33.33ZM14.68,18.62a.5.5,0,0,1-.57-.42.51.51,0,0,1,.42-.57,19.54,19.54,0,0,1,5.72,0,6.36,6.36,0,0,1,3.85,2.08.51.51,0,0,1-.1.7.57.57,0,0,1-.3.1.51.51,0,0,1-.4-.2,5.48,5.48,0,0,0-3.24-1.7A19.28,19.28,0,0,0,14.68,18.62Zm16.57,1.87a.49.49,0,0,1-.3-.1.51.51,0,0,1-.1-.7,6.41,6.41,0,0,1,3.85-2.08,19.75,19.75,0,0,1,5.72,0,.5.5,0,1,1-.15,1,18.7,18.7,0,0,0-5.38,0,5.57,5.57,0,0,0-3.24,1.7A.49.49,0,0,1,31.25,20.49ZM15.92,63.23a.5.5,0,0,1-.15.69.45.45,0,0,1-.27.08.49.49,0,0,1-.42-.23l-1.65-2.61A171.5,171.5,0,0,1,1.86,46.27,6.09,6.09,0,0,1,.42,42.83,54.33,54.33,0,0,1,0,35.46L2,24.6a.69.69,0,0,1,.33-.51,1.09,1.09,0,0,1,1,.07A3.44,3.44,0,0,1,5,25.92,5.81,5.81,0,0,1,5,29c-.07.4-.14.8-.18,1.16v5.17l.44,1.36.94,2.15a.5.5,0,0,1-.26.66.5.5,0,0,1-.66-.26l-1-2.2-.49-1.48a.77.77,0,0,1,0-.15v-5.3c.05-.44.12-.86.2-1.28a5.49,5.49,0,0,0,.11-2.51,2.45,2.45,0,0,0-1.15-1.24L1,35.6a58.12,58.12,0,0,0,.38,7.14,5.33,5.33,0,0,0,1.25,2.94,171.34,171.34,0,0,0,11.5,14.8.34.34,0,0,1,.08.09ZM41.28,45.12,39.66,47c-1.1,1.26-4.07,4-4.19,4.14-2.12,2-3.39,3.18-4,4.47a.48.48,0,0,1-.21.59c0,.14-.08.28-.1.42A6.24,6.24,0,0,0,32.46,61a.5.5,0,0,1-.13.7.48.48,0,0,1-.28.08.5.5,0,0,1-.42-.22,7.32,7.32,0,0,1-1.44-4.85,6.7,6.7,0,0,1-1.81.34h-.31a6.24,6.24,0,0,1-2.26-.42,7.28,7.28,0,0,1-1.44,4.92.52.52,0,0,1-.7.14.52.52,0,0,1-.13-.7,6.19,6.19,0,0,0,1.26-4.37,3.74,3.74,0,0,0-.16-.66l0-.06c-.5-1.41-1.8-2.63-4.07-4.75-.13-.12-3.09-2.89-4.2-4.15l-1.61-1.84a20.77,20.77,0,0,0-3.4-3.35L11,41.53a2.45,2.45,0,0,0-2.93-.1l4.15,6.2,1.77,4a.49.49,0,0,1-.25.66.5.5,0,0,1-.66-.25l-1.73-3.89L7,41.61A.51.51,0,0,1,7.06,41a3.47,3.47,0,0,1,4.58-.22l.29.22a21.72,21.72,0,0,1,3.54,3.49l1.62,1.83c1.08,1.23,4.1,4.06,4.13,4.08,2.32,2.17,3.68,3.45,4.28,5a5.49,5.49,0,0,0,5,.1c.58-1.6,2-2.89,4.31-5.1,0,0,3.06-2.85,4.13-4.07l1.62-1.84A21.72,21.72,0,0,1,44.07,41a3.15,3.15,0,0,0,.29-.22,3.48,3.48,0,0,1,4.58.22.49.49,0,0,1,.07.64l-4.4,6.58L42.91,52a.5.5,0,1,1-.91-.41l1.73-3.89,4.2-6.27a2.46,2.46,0,0,0-2.94.1l-.32.24A21,21,0,0,0,41.28,45.12Zm14.31-2.29a6.3,6.3,0,0,1-1.49,3.5A171.44,171.44,0,0,1,42.57,61.16l-1.64,2.61a.51.51,0,0,1-.43.23.47.47,0,0,1-.27-.08.5.5,0,0,1-.15-.69l1.68-2.66a.34.34,0,0,1,.08-.09A169.31,169.31,0,0,0,53.3,45.74a5.31,5.31,0,0,0,1.29-3A56.43,56.43,0,0,0,55,35.56l-1.9-10.47a2.47,2.47,0,0,0-1.16,1.24A5.49,5.49,0,0,0,52,28.84c.08.42.15.84.2,1.23v5.35a.4.4,0,0,1,0,.15L51.72,37l-1,2.24a.5.5,0,0,1-.66.26.5.5,0,0,1-.26-.66l1-2.2.43-1.31V30.12c0-.31-.11-.71-.18-1.11a5.7,5.7,0,0,1,0-3.09,3.36,3.36,0,0,1,1.7-1.76,1,1,0,0,1,1-.07.69.69,0,0,1,.34.55l2,10.78A56,56,0,0,1,55.59,42.83Z"></path></svg>