<svg id="undefined" xmlns="http://www.w3.org/2000/svg" viewBox="0 0 64 56" width="64" height="64" class="vds-svg"><path id="undefined" class="cls-1" d="M51.32,17.18C47,22.76,40.47,30,32.48,30c-.42,0-.85,0-1.28-.06-3-.29-9-2.23-14.57-7.28.42,6.29.56,20.76-6.45,25.45C6.88,50.32.91,52.35.66,52.44a.45.45,0,0,1-.16,0A.49.49,0,0,1,0,52.13a.51.51,0,0,1,.31-.64c.06,0,6.09-2.08,9.28-4.21,7-4.69,6.38-20.29,5.93-25.64A32.91,32.91,0,0,1,11.74,17,39.42,39.42,0,0,1,5,.55.5.5,0,0,1,5.45,0,.51.51,0,0,1,6,.45a39.07,39.07,0,0,0,6.57,16A30.46,30.46,0,0,0,16,20.67a.5.5,0,0,1,.48.45v0c5.23,5.1,11.32,7.47,14.79,7.8,8.07.78,14.84-6.68,19.23-12.37A32.57,32.57,0,0,0,57,.43.51.51,0,0,1,57.57,0,.5.5,0,0,1,58,.57,33.56,33.56,0,0,1,51.32,17.18ZM63.6,51.48c-.06,0-6.61-1.4-10-4.26-3-2.58-3.58-7-4.11-11.3l-.15-1.26a83.84,83.84,0,0,1-.61-9,.51.51,0,0,0-.5-.5h0a.51.51,0,0,0-.5.51,84.71,84.71,0,0,0,.62,9.09L48.51,36C49,40.31,49.63,45.14,53,48c3.56,3,10.15,4.42,10.43,4.48h.1a.51.51,0,0,0,.49-.4A.49.49,0,0,0,63.6,51.48Zm-20-13.8A15.38,15.38,0,0,1,43,52.29c-1.32,2.39-2.81,3.58-4.44,3.54-2.19-.06-3.78-2.38-4-2.83s-.45-.68-.65-.68h0c-.15,0-.41.2-.72.75C31.89,55,30.58,56,29.25,56h-.14c-2-.1-3.1-2.28-3.11-2.3a32.37,32.37,0,0,1-2.79-7.84,13,13,0,0,1,.34-7.26h0c.5-1.19,2.28-3.46,4.13-3.3,1.7.14,2.46,2.55,3.14,4.67a11.2,11.2,0,0,0,1,2.48c.36.54.89,1.27,1.24,1.29s1.1-.84,1.33-1.11a46.49,46.49,0,0,0,3.84-5.86c.11-.18,1.13-1.83,2.62-1.77C41.88,35.06,42.82,36,43.6,37.68Zm-.91.41C42.08,36.76,41.42,36,40.77,36s-1.4.74-1.7,1.28a47.33,47.33,0,0,1-3.94,6c-.75.91-1.4,1.52-2.15,1.47s-1.32-.68-2-1.72a11.69,11.69,0,0,1-1.09-2.73c-.56-1.74-1.24-3.9-2.27-4C26.38,36.19,24.88,38,24.47,39a12.06,12.06,0,0,0-.29,6.65,31.64,31.64,0,0,0,2.71,7.61A3.27,3.27,0,0,0,29.16,55c1,.06,2.07-.8,3.12-2.44.46-.83,1-1.25,1.6-1.24.87,0,1.39,1,1.53,1.24,0,0,1.35,2.24,3.15,2.27,1.21,0,2.4-1,3.52-3A14.45,14.45,0,0,0,42.69,38.09Zm-18.85-27a.47.47,0,0,1,0-.51.5.5,0,0,1,.43-.28A7.84,7.84,0,0,0,28.42,8.5c2.47-1.95,4.2-1.3,4.89-.86,2.32-1.44,4.56.26,5.78,1.2l.25.18a8.37,8.37,0,0,0,3.47,1.08.47.47,0,0,1,.38.24.48.48,0,0,1,0,.45c-.39,1-3.76,4.35-10,4.54h-.39A11.27,11.27,0,0,1,23.84,11.12Zm1.38.07a10.5,10.5,0,0,0,8,3.14c4.87-.14,7.67-2.28,8.69-3.36a7.88,7.88,0,0,1-3.12-1.15l-.25-.19c-1.62-1.23-3.21-2.23-4.89-1a.49.49,0,0,1-.64,0c-.06,0-1.44-1.28-3.92.67A9.73,9.73,0,0,1,25.22,11.19Z"></path></svg>