<svg id="card-especialidad-gastroenterologia-sede-peru-miraflores-piura" xmlns="http://www.w3.org/2000/svg" viewBox="0 0 51 64" width="64" height="64" class="vds-svg"><path id="card-especialidad-gastroenterologia-sede-peru-miraflores-piura" class="cls-1" d="M42.62,60.49a1.91,1.91,0,0,1,.61,1.41,4.89,4.89,0,0,1-.48,1.82.49.49,0,0,1-.45.28.59.59,0,0,1-.22,0,.5.5,0,0,1-.23-.67,3.88,3.88,0,0,0,.38-1.38.9.9,0,0,0-.3-.68c-.75-.73-2.67-.8-3.35-.78H16c-.28,0-7.85.58-12.53-4S.16,43.15.22,42.78,1.78,34.73,6,33.23c1.84-.65,3.89,0,6.07,1.82,2.39,2,4.78,2.93,7.09,2.65,4-.47,6.7-4.25,7.6-5.49l.11-.14c1.34-1.84,3.12-8.33-.85-12A18.16,18.16,0,0,1,20,9.58c-.51-2.8,0-8.86,0-9.12a.5.5,0,1,1,1,.08c0,.06-.5,6.19,0,8.85s1.57,6.09,5.74,9.94c4.49,4.16,2.51,11.22,1,13.33l-.1.14c-1,1.33-3.89,5.37-8.3,5.9-2.59.31-5.23-.66-7.85-2.89-1.89-1.61-3.6-2.16-5.09-1.64C2.66,35.48,1.22,42.88,1.21,43s-1.32,8.49,3,12.75S15.92,59.45,16,59.45H38.56C38.83,59.43,41.42,59.35,42.62,60.49Zm-1.55-5.71c-.94,0-23.23-.09-25.3,0-4.33.2-7.33-1.38-8.7-4.56a5.71,5.71,0,0,1,.86-6.4.23.23,0,0,1,.21-.08.26.26,0,0,1,.21.11c4.41,5.52,8.45,7.36,18,8.21,9.75.86,18.86-8.45,19.26-8.87C49.51,38.7,51.31,34,51,29.08c-.55-7.65-6.19-12.73-6.31-12.83a11.14,11.14,0,0,0-5.16-2.66,10.73,10.73,0,0,0-5.37.39,10.9,10.9,0,0,1-3,.48C29,14.38,26.75,12.11,26,9.4S26,.76,26,.7a.49.49,0,0,0-.43-.56.5.5,0,0,0-.56.43c0,.25-.76,6.17,0,9.09.84,3.15,3.49,5.7,6.05,5.8A11.72,11.72,0,0,0,34.36,15a9.87,9.87,0,0,1,4.87-.4,10.35,10.35,0,0,1,4.83,2.51c0,.05,5.39,5,5.9,12.1.33,4.59-1.39,9.09-5.08,13.36-.1.09-9.16,9.36-18.44,8.54s-13-2.51-17.3-7.84a1.31,1.31,0,0,0-1-.48,1.29,1.29,0,0,0-1,.41,6.67,6.67,0,0,0-1,7.47c1.55,3.59,4.91,5.37,9.67,5.16,2.05-.1,25,0,25.26,0s6.71,0,7.06,5.54a8.59,8.59,0,0,1-.1,2.1.5.5,0,0,0,.41.57h.09a.49.49,0,0,0,.49-.42,10,10,0,0,0,.11-2.33C48.73,54.77,41.11,54.77,41.07,54.78Zm1.71-17.49a.5.5,0,0,0,.59-.4,10,10,0,0,0-.62-6.2,1,1,0,0,0-1-.48,1,1,0,0,0-.86.68l-.14.42a7.37,7.37,0,0,1-2,3.41c-2.23,2-6.85,3.47-10.19,3.94s-5.53,1.49-6.28,3c-.57,1.17-.36,2.63.62,4.34a5.59,5.59,0,0,0,5.2,2.78A16.19,16.19,0,0,0,32,48.22l.78-.19c1.83-.36,8.61-4.56,9.69-8.12a.5.5,0,0,0-.95-.29c-1,3.11-7.34,7.12-8.93,7.43l-.83.2c-2.13.53-6.09,1.52-8-1.72-.81-1.41-1-2.55-.59-3.41.58-1.2,2.44-2,5.52-2.47,2.69-.38,8-1.69,10.72-4.19a8.33,8.33,0,0,0,2.29-3.83l.19-.41a9.23,9.23,0,0,1,.49,5.48A.5.5,0,0,0,42.78,37.29Z"></path></svg>