<svg id="undefined" xmlns="http://www.w3.org/2000/svg" viewBox="0 0 63 64" width="64" height="64" class="vds-svg"><path id="undefined" class="cls-1" d="M63,62.08l-.6-1.65A27,27,0,0,0,44.94,43.37a7.12,7.12,0,0,0,.51-2.66V26a7.2,7.2,0,0,0-7.16-7.2h0c-5.37-.34-6.15-6.29-6.15-6.35-.07-1-.08-1.18-.08-1.2h0a.5.5,0,0,0-1,0h0v1.34a6.21,6.21,0,0,1-6.2,6.21,7.21,7.21,0,0,0-7.2,7.2V36.43a18.08,18.08,0,0,1-4.37-11.8A18.3,18.3,0,0,1,31.55,6.36C45,6.36,49.82,15.8,49.82,24.63a18.1,18.1,0,0,1-3.29,10.43.5.5,0,0,0,.13.7.49.49,0,0,0,.69-.12,19.1,19.1,0,0,0,3.47-11C50.82,16,46.73,9.7,39.94,6.92,39.38,2.83,36,0,31.55,0A8.52,8.52,0,0,0,23.1,7.34a19.21,19.21,0,0,0-5.45,30.6v2.77a7.15,7.15,0,0,0,.5,2.63A26.91,26.91,0,0,0,.63,60.43L0,62.08a.5.5,0,0,0,.3.64.51.51,0,0,0,.17,0A.51.51,0,0,0,1,62.42l.6-1.65a26,26,0,0,1,17-16.52,7.44,7.44,0,0,0,1.74,2,17.84,17.84,0,0,0,.13,2.84.51.51,0,0,0,.5.44H21a.5.5,0,0,0,.44-.56,14.73,14.73,0,0,1-.14-2,7.25,7.25,0,0,0,3.59.94h0l.88-.1a7.11,7.11,0,0,0,5.57,2.78,6.15,6.15,0,0,0,5.5-2.77l1.4.1A7.12,7.12,0,0,0,41.74,47a19.47,19.47,0,0,1-.28,2.55.49.49,0,0,0,.4.58H42a.49.49,0,0,0,.49-.4,24.61,24.61,0,0,0,.33-3.43,7.37,7.37,0,0,0,1.73-2A26,26,0,0,1,61.43,60.77l.6,1.65a.5.5,0,0,0,.94-.34ZM31.55,1a7.13,7.13,0,0,1,7.31,5.52,22.55,22.55,0,0,0-7.31-1.16,19.3,19.3,0,0,0-7.34,1.46A7.53,7.53,0,0,1,31.55,1Zm6.74,45.92-.93-.07a5.67,5.67,0,0,0,.26-.66.5.5,0,0,0-.95-.3,5.16,5.16,0,0,1-5.32,3.7,6.08,6.08,0,0,1-5.66-4,.5.5,0,0,0-1,.34,8.12,8.12,0,0,0,.43,1l-.32,0a6.21,6.21,0,0,1-6.2-6.21V26a6.21,6.21,0,0,1,6.2-6.2,7.22,7.22,0,0,0,6.87-5,7.31,7.31,0,0,0,6.53,5,6.21,6.21,0,0,1,6.2,6.2V40.71A6.21,6.21,0,0,1,38.29,46.92ZM12,58.2a11.87,11.87,0,0,1,1.25,5.3.5.5,0,0,1-.5.5.5.5,0,0,1-.5-.5,10.84,10.84,0,0,0-1.14-4.85L11,58.36a.49.49,0,0,1,.22-.67.5.5,0,0,1,.67.22Zm40.07.16-.14.29a10.84,10.84,0,0,0-1.14,4.85.5.5,0,0,1-.5.5.5.5,0,0,1-.5-.5,11.87,11.87,0,0,1,1.25-5.3l.14-.29a.5.5,0,0,1,.67-.22A.49.49,0,0,1,52.1,58.36ZM26.3,28.58c-.26.06-2.57.85-4,1.33A.5.5,0,0,1,22,29c.62-.21,3.69-1.26,4.08-1.35l.15,0a2,2,0,0,1,1.49,0A.65.65,0,0,1,28,28c.08.48,0,2.4,0,2.78a.51.51,0,0,1-.5.49h0a.5.5,0,0,1-.48-.52c0-.75,0-1.83,0-2.34l-.58.12Zm15.09,1.08c-.09.16-.33.21-.67.19l0,0-.05,0a18,18,0,0,1-3.94-1.3A1.91,1.91,0,0,0,36,28.4c0,.43,0,1.45,0,2.36a.5.5,0,0,1-.49.52h0a.51.51,0,0,1-.5-.49,20.43,20.43,0,0,1,0-2.82.67.67,0,0,1,.39-.45,2.13,2.13,0,0,1,1.64.12c.91.42,3.51,1.2,3.88,1.3a.49.49,0,0,1,.16,0A.52.52,0,0,1,41.39,29.66Zm-12.68,6a.49.49,0,0,1,.68-.18,3.87,3.87,0,0,0,2.16.67,4,4,0,0,0,2.13-.57.5.5,0,1,1,.5.86,5,5,0,0,1-2.63.71,4.79,4.79,0,0,1-2.66-.81A.49.49,0,0,1,28.71,35.67Zm12.75,17c-1.37,4.18-4.33,6-9.91,6S22,55.91,20.73,51.16a.5.5,0,0,1,.36-.61.5.5,0,0,1,.61.35c1.12,4.28,4.71,6.74,9.85,6.74s7.74-1.53,9-5.28a.5.5,0,0,1,1,.31ZM37.32,39.79a.5.5,0,0,1-.12.69,8.57,8.57,0,0,1-5.05,1.81l-.64,0a10.41,10.41,0,0,1-6-2.07.5.5,0,0,1,.58-.82,9.3,9.3,0,0,0,5.51,1.89,7.31,7.31,0,0,0,5-1.6A.5.5,0,0,1,37.32,39.79Z"></path></svg>