<svg id="undefined" xmlns="http://www.w3.org/2000/svg" viewBox="0 0 64 64" width="64" height="64" class="vds-svg"><path id="undefined" d="M59.51,13.43C56.88,11.55,51.6,9,45.65,12.67l-1.51.95c-4,2.55-6.59,4.23-12.17,3.94-5.51.28-8.13-1.39-12.11-3.94l-1.51-.95C12.41,9,7.12,11.55,4.49,13.43,1.26,15.75-.15,18.91.07,23.34c0,3.85,3.23,7.4,3.94,8.13C4.14,34,6.53,36,9.46,36s5.46-2.13,5.46-4.75-2.45-4.75-5.46-4.75a6.09,6.09,0,0,0-3,.75c-1.61-3-1.74-6.64-.26-9a5.42,5.42,0,0,1,5.39-2.51c5.77.44,6.91,4.46,8.36,9.55.18.63.36,1.27.56,1.92,1.72,5.7,7.32,12.74,8.06,13.65l.58,2.39v8.14a.48.48,0,0,0,.17.37l.92.83a2.57,2.57,0,0,0,3.42,0l.92-.83a.48.48,0,0,0,.17-.37V43.23l.58-2.39c.74-.91,6.34-8,8.06-13.65.2-.65.38-1.29.56-1.92,1.45-5.09,2.6-9.11,8.36-9.55a6.21,6.21,0,0,1,6.25,3.5,7.53,7.53,0,0,1-1,8.09,6,6,0,0,0-3-.8c-3,0-5.46,2.13-5.46,4.75S51.53,36,54.54,36s5.32-2,5.45-4.54c.71-.73,3.94-4.28,3.94-8.1C64.15,18.91,62.74,15.75,59.51,13.43ZM13.92,31.26c0,2.07-2,3.75-4.46,3.75S5,33.33,5,31.26s2-3.75,4.46-3.75S13.92,29.19,13.92,31.26ZM54.54,35c-2.46,0-4.46-1.68-4.46-3.75s2-3.75,4.46-3.75S59,29.19,59,31.26,57,35,54.54,35Zm8.39-11.67c0,2.78-2,5.51-3.09,6.8a4.58,4.58,0,0,0-1.45-2.25,8.53,8.53,0,0,0,1.12-9.11,7.19,7.19,0,0,0-7.22-4.06c-6.47.49-7.76,5-9.25,10.28-.18.62-.36,1.25-.56,1.9-1.74,5.79-7.88,13.32-7.94,13.39a.54.54,0,0,0-.1.2l-.63,2.56s0,.07,0,.11v8l-.76.67a1.56,1.56,0,0,1-2.08,0l-.76-.67v-8a.37.37,0,0,0,0-.11l-.63-2.56a.54.54,0,0,0-.1-.2c-.06-.07-6.2-7.6-7.94-13.39-.2-.65-.38-1.28-.55-1.9-1.5-5.25-2.79-9.79-9.25-10.28a6.48,6.48,0,0,0-6.32,3c-1.7,2.75-1.57,6.77.28,10.13a4.63,4.63,0,0,0-1.52,2.31c-1.09-1.29-3.09-4-3.1-6.82-.19-4.09,1.08-7,4-9.08,2.42-1.73,7.29-4.13,12.74-.72l1.5,1c4,2.55,6.9,4.4,12.65,4.09,5.84.31,8.72-1.54,12.71-4.09l1.5-1c5.45-3.41,10.32-1,12.74.72C61.86,16.35,63.13,19.23,62.93,23.34ZM32,38a.48.48,0,0,1-.36-.15c-.35-.37-8.51-9.12-8.26-17.21a.5.5,0,0,1,.2-.39.48.48,0,0,1,.42-.08,37.65,37.65,0,0,0,8,1.08,37.52,37.52,0,0,0,8-1.08.48.48,0,0,1,.42.08.47.47,0,0,1,.2.39,15,15,0,0,1-.69,4.74.5.5,0,0,1-1-.29,15.11,15.11,0,0,0,.66-3.8,37.25,37.25,0,0,1-7.63,1,37,37,0,0,1-7.62-1C24.54,27.85,30.46,35,32,36.75a42,42,0,0,0,4-5.31.51.51,0,0,1,.69-.16.5.5,0,0,1,.15.69,40.48,40.48,0,0,1-4.44,5.87A.48.48,0,0,1,32,38Zm5.56-7.81a.53.53,0,0,1-.24-.06.51.51,0,0,1-.2-.68c.39-.74.75-1.47,1.05-2.18a.5.5,0,0,1,.92.4c-.32.73-.68,1.49-1.09,2.25A.5.5,0,0,1,37.56,30.18Z"></path></svg>