<svg id="undefined" xmlns="http://www.w3.org/2000/svg" viewBox="0 0 64 64" width="64" height="64" class="vds-svg"><path id="undefined" class="cls-1" d="M57.13,63H22a.5.5,0,0,1-.4-.79l2.21-3a.51.51,0,0,1,.41-.2h0l30.71.15a.49.49,0,0,1,.4.2l2.21,2.89a.49.49,0,0,1,0,.53A.48.48,0,0,1,57.13,63ZM23,62H56.11l-1.45-1.89L24.45,60Zm4.49-6.11a2.32,2.32,0,0,1-.58-.08A3.87,3.87,0,0,1,24.79,54c-1.77-4.48,2.53-8.9,2.72-9.08a.49.49,0,0,1,.57-.11.52.52,0,0,1,.28.51,5.14,5.14,0,0,0,.83,3.76,5.94,5.94,0,0,1,1.16,3,3.52,3.52,0,0,1-1.51,3.41A2.58,2.58,0,0,1,27.46,55.91ZM25.7,53.57a2.89,2.89,0,0,0,1.44,1.3,1.38,1.38,0,0,0,1.15-.24,2.53,2.53,0,0,0,1.06-2.46,4.84,4.84,0,0,0-.94-2.48,5.61,5.61,0,0,1-1.07-3c-1.09,1.47-2.69,4.26-1.64,6.92Zm0,0h0ZM56.21,13.05a11,11,0,0,1,2.95-5.34c1.35-1.47,2-2.82,1.82-4a2.34,2.34,0,0,0-.87-1.6h0a2.89,2.89,0,0,0-2.35-.8,4.91,4.91,0,0,0-3,2.13A16.15,16.15,0,0,1,52.9,5.72C50.83,7.86,49.75,8,49.7,8a.53.53,0,0,0-.12,0l-.72-.59a.51.51,0,0,0-.7.06l-2.83,3.33a.48.48,0,0,0-.12.36.52.52,0,0,0,.18.35l1.14.93a.46.46,0,0,0-.23.16l-5.77,7.41h0l-1.29,1.66h0l-6.32,8.11a16.2,16.2,0,0,0-2.38,5.32,3.3,3.3,0,0,1-.6,1.18L27.11,40a.5.5,0,0,0-.11.37.53.53,0,0,0,.19.33l3.21,2.49a.51.51,0,0,0,.31.11.49.49,0,0,0,.39-.2l3-3.81a5.88,5.88,0,0,1,1.37-1A8.45,8.45,0,0,0,38.7,36L51.44,19.49a.51.51,0,0,0-.09-.71.52.52,0,0,0-.7.09L49,21c-.83-1-3.19-1.44-7-1.19l5.08-6.53a.41.41,0,0,0,.09-.23l6.58,5.41a.47.47,0,0,0,.31.12h.06a.55.55,0,0,0,.34-.19l2.7-3.45a.5.5,0,0,0-.08-.69L56,13.37A.51.51,0,0,0,56.21,13.05ZM37.93,35.33a7.4,7.4,0,0,1-2.8,2l-.13.05a6.35,6.35,0,0,0-1.74,1.35L30.62,42.1,28.2,40.22,30.72,37a4.46,4.46,0,0,0,.77-1.52,15.74,15.74,0,0,1,2.19-4.95l6.12-7.86a16.81,16.81,0,0,0,5.18.93,8.92,8.92,0,0,0,2.24-.27ZM48.22,21.6a.54.54,0,0,1,.11.18c-2.41,1.5-6.34.51-7.88,0l.27-.34.46-.6C46.56,20.41,47.9,21.22,48.22,21.6ZM54,17.37l-7.58-6.24L48.6,8.57l7.48,6.14ZM50.49,8.82a10.26,10.26,0,0,0,3.13-2.4A18.74,18.74,0,0,0,55.54,4a3.82,3.82,0,0,1,2.34-1.71,2.06,2.06,0,0,1,1.63.6,1.46,1.46,0,0,1,.48.93c.07.6-.15,1.64-1.55,3.17a12,12,0,0,0-3.19,5.73ZM21,2.77C21,.87,16.33,0,12,0S3,.87,3,2.77V7.54A.52.52,0,0,0,3.27,8c.07,0,.5.24,1.23.5h0V56.25A7.64,7.64,0,0,0,12,64a7.64,7.64,0,0,0,7.5-7.75V10.62a.5.5,0,1,0-1,0v7.94c-2.73-1.69-10.27-1.69-13,0V16H9a.5.5,0,0,0,0-1H5.5V8.82a22.13,22.13,0,0,0,6.27.88A24.76,24.76,0,0,0,20.68,8,.51.51,0,0,0,21,7.54V2.77ZM12,63a6.64,6.64,0,0,1-6.5-6.75V55H8.55a.5.5,0,0,0,0-1H5.5V50.1H8.1a.5.5,0,0,0,.5-.5.5.5,0,0,0-.5-.5H5.5V45.33H9a.5.5,0,0,0,.5-.5.5.5,0,0,0-.5-.5H5.5v-4H8.1a.5.5,0,0,0,.5-.5.5.5,0,0,0-.5-.5H5.5V35.66H9a.5.5,0,0,0,.5-.5.5.5,0,0,0-.5-.5H5.5v-4H8.1a.5.5,0,0,0,.5-.5.5.5,0,0,0-.5-.5H5.5V25.93H9a.5.5,0,0,0,.5-.5.5.5,0,0,0-.5-.5H5.5V21.44c1.37.87,3.94,1.31,6.5,1.31s5.13-.44,6.5-1.31V56.25A6.64,6.64,0,0,1,12,63Zm0-44.75c3.91,0,6.5,1.05,6.5,1.75s-2.59,1.75-6.5,1.75S5.5,20.7,5.5,20,8.09,18.25,12,18.25ZM12,1c5.18,0,8,1.17,8,1.77s-2.82,1.78-8,1.78S4,3.38,4,2.77,6.82,1,12,1ZM4,7.22V4.13c1.6,1,4.88,1.42,8,1.42s6.4-.46,8-1.42V7.19A22.21,22.21,0,0,1,4,7.22Z"></path></svg>