<svg id="undefined" xmlns="http://www.w3.org/2000/svg" viewBox="0 0 64 64" width="64" height="64" class="vds-svg"><path id="undefined" class="cls-2" d="M39.54,18.7a2.77,2.77,0,0,0,2.61-2.63A.5.5,0,0,0,42,15.7a.48.48,0,0,0-.36-.16H37.16a.48.48,0,0,0-.36.16.47.47,0,0,0-.14.37,2.71,2.71,0,0,0,2.79,2.63Zm-1.79-2.16H41a1.67,1.67,0,0,1-1.55,1.16h0A1.77,1.77,0,0,1,37.75,16.54Zm-.25-2.46a.76.76,0,0,1,0-.76c.46-1.12.9-2.36.9-2.36a.5.5,0,0,1,1,.34s-.41,1.13-.85,2.22a2.19,2.19,0,0,0,.36,0l.6.06a.5.5,0,0,1-.06,1h-.07l-.54,0C38.22,14.51,37.73,14.47,37.5,14.08ZM58.75,57.79a3.68,3.68,0,0,0-2.5-.93l-7.54-.33V48.67a6.26,6.26,0,0,0,1.07.1h0c2.67,0,4.65-2.3,5.3-6.17a20.2,20.2,0,0,0-1.51-11.06,14.69,14.69,0,0,0-8.46-8.31c-.34-.11-1.47-.59-1.46-1.7V19.9a5,5,0,0,0,2.16-3.26c0-.18.05-.34.07-.52a4.26,4.26,0,0,0,1.88-2.36,7,7,0,0,0,.44-2.44c0-2.12-1.08-2.52-1.34-2.58.2-.45.4-.86.6-1.24a4.18,4.18,0,0,0,.73-2.39C48,3.4,44,0,39.39,0a6,6,0,0,0-5.74,3.33A2.5,2.5,0,0,0,32,4.67a6.43,6.43,0,0,0-.12,4.05.39.39,0,0,0-.21,0c-.24.1-1.39.74-.86,3.8.33,1.88,1.22,3.11,2.52,3.48a6.44,6.44,0,0,0,.31,1.26,5.83,5.83,0,0,0,2.7,3v1.13c0,.49-.2,1.2-1.86,1.74-6.44,2.08-8.29,3.58-10.31,12.44a.5.5,0,0,0,.38.6l.11,0a.51.51,0,0,0,.49-.39c1.92-8.43,3.54-9.74,9.64-11.72a5.93,5.93,0,0,0,1.27-.57L39.3,27a.51.51,0,0,0,.36.15A.5.5,0,0,0,40,27l3.81-3.35a3.78,3.78,0,0,0,1,.52c7.64,2.64,10.32,12.3,9.31,18.25-.57,3.35-2.18,5.34-4.32,5.34h0c-4.45,0-7.83-5.78-8.55-7.11a12.32,12.32,0,0,1,3.65-3.11c.74,1.26,2.9,4.68,4.84,5.29a.5.5,0,1,0,.3-1,4.76,4.76,0,0,1-1.77-1.35,3.4,3.4,0,0,0,1.66-3.21c0-4-3.15-4-3.18-4H44.05A2.9,2.9,0,0,0,43,31.75a1.24,1.24,0,0,0-1.26,0,1.14,1.14,0,0,0-.6.94c-1.07-1.08-2.63-2.21-4-1.3a3.08,3.08,0,0,0-1.32,1.89H29.41a4.33,4.33,0,0,0-3.69,2.08l-.86,1.42a8.48,8.48,0,0,0-2.05-.63.5.5,0,0,0-.53.25L19.2,41.88a.5.5,0,0,0,.1.61c.52.47,1,.85,1.41,1.17l-2.1,3.77A3,3,0,0,1,16,49H4.72a.5.5,0,0,0-.5.5.5.5,0,0,0,.5.5H16a4,4,0,0,0,3.51-2l2.05-3.68a5.27,5.27,0,0,0,.55.3,4.06,4.06,0,0,0,1.61.36,3,3,0,0,0,2.62-1.46c.88-1.36-.26-2.89-1.37-3.93a1.18,1.18,0,0,0,.92-.64,1.25,1.25,0,0,0-.19-1.49l.91-1.5a3.32,3.32,0,0,1,2.83-1.59h6.33a4.2,4.2,0,0,0,.37,1.36,18.52,18.52,0,0,0,3,3.64.52.52,0,0,0,.35.14.51.51,0,0,0,.36-.15.51.51,0,0,0,0-.71A17.15,17.15,0,0,1,37,35.23a2.21,2.21,0,0,1,.66-3c1.15-.78,3.19,1.61,3.81,2.51l0,0,.08.07a.18.18,0,0,0,.07,0l.1,0h.08a.17.17,0,0,0,.1,0l.1,0h0s0,0,0,0l0,0,0,0,.07-.07a.35.35,0,0,0,.05-.08l0-.09a.29.29,0,0,0,0-.09v-.09a.43.43,0,0,0,0-.11.06.06,0,0,0,0,0c-.29-.69-.39-1.52-.2-1.62a.31.31,0,0,1,.31,0c.7.38,1.2,2.77,1.34,4.4a12.87,12.87,0,0,0-3.35,3H33.87a3.88,3.88,0,0,0-3.72,2.73l-4,12.75h0l-7.8-.35h0a.5.5,0,0,0,0,1L48.2,57.5h0l8,.36a2.79,2.79,0,0,1,1.82.66,2.69,2.69,0,0,1,.71,2c0,2.37-2.42,2.45-2.69,2.45H4.72a.5.5,0,1,0,0,1H56.09a3.46,3.46,0,0,0,3.69-3.45A3.62,3.62,0,0,0,58.75,57.79ZM47.22,11.32a6.07,6.07,0,0,1-.37,2.08,4.67,4.67,0,0,1-.79,1.34,22.15,22.15,0,0,0,.09-2.33s0,0,0,0a8.19,8.19,0,0,1,.37-2.71l.09,0C46.83,9.76,47.21,10.18,47.22,11.32Zm-15.42,1c-.37-2.14.25-2.61.29-2.65s0,0,0,0a21.36,21.36,0,0,0,1,2.86c0,.8,0,1.64,0,2.42A3.56,3.56,0,0,1,31.8,12.31Zm1.67-2.84a6.22,6.22,0,0,0-.12.7c-.57-1.7-1-3.86-.44-5a1.59,1.59,0,0,1,1.18-.87A.47.47,0,0,0,34.44,4a5,5,0,0,1,5-3c4.33,0,7.69,3.18,7.83,4.24A3.65,3.65,0,0,1,46.59,7a15,15,0,0,0-.93,2.09c-.81-2.16-2-2.76-2.89-2.86a2.81,2.81,0,0,0-1.33.18,4.35,4.35,0,0,1-3,.32h0a3.07,3.07,0,0,0-2.83-.61C34.18,6.7,33.68,8.64,33.47,9.47Zm1.12,7.46c-.6-1.53-.48-5.91-.15-7.21C34.6,9.1,35,7.45,36,7.09A1.42,1.42,0,0,1,36.38,7a2.87,2.87,0,0,1,1.54.6s0,0,.11.06a5.06,5.06,0,0,0,3.77-.29,1.76,1.76,0,0,1,.86-.13c1.17.13,1.83,1.46,2.18,2.53.25.85.58,2.86,0,6.7a4.28,4.28,0,0,1-3,3.21,9.48,9.48,0,0,1-2.57.33A5,5,0,0,1,34.59,16.93Zm5.11,9-2.87-3.07a2.2,2.2,0,0,0,.53-1.46v-.69a6.22,6.22,0,0,0,1.88.31h.09a10,10,0,0,0,2.76-.37,3.51,3.51,0,0,0,.57-.21v1.07a2.54,2.54,0,0,0,.44,1.42Zm7,8.35c.23,0,2.19.11,2.19,3a2.45,2.45,0,0,1-1.32,2.43,26,26,0,0,1-2.08-3.1.5.5,0,0,0-.65-.21l-.1.05a16.41,16.41,0,0,0-.39-2.2ZM25,38.43c-.1.19-.93.1-1.62-.17a.51.51,0,0,0-.63.24.48.48,0,0,0,.17.64c.91.61,3.33,2.6,2.58,3.76a2.21,2.21,0,0,1-3,.72A10.43,10.43,0,0,1,20.27,42L23,37.22c1.63.36,2,.79,2,.92A.29.29,0,0,1,25,38.43Zm22.74,18-20.54-.92,3.93-12.5a2.88,2.88,0,0,1,2.77-2h6.42c.55,1,3.33,6,7.42,7.39Z"></path></svg>