<svg id="undefined" xmlns="http://www.w3.org/2000/svg" viewBox="0 0 64 64" width="64" height="64" class="vds-svg"><path id="undefined" class="cls-2" d="M58.5,5H5.5A5.51,5.51,0,0,0,0,10.5v43A5.51,5.51,0,0,0,5.5,59h53A5.51,5.51,0,0,0,64,53.5v-43A5.51,5.51,0,0,0,58.5,5ZM63,53.5A4.51,4.51,0,0,1,58.5,58H5.5A4.51,4.51,0,0,1,1,53.5v-43A4.51,4.51,0,0,1,5.5,6h53A4.51,4.51,0,0,1,63,10.5ZM56.83,11.67H7.17a.5.5,0,0,0-.5.5V46a.5.5,0,0,0,.5.5H56.83a.5.5,0,0,0,.5-.5V12.17A.5.5,0,0,0,56.83,11.67Zm-.5,33.82H7.67V12.67H56.33ZM9.5,17.5A.5.5,0,0,1,10,17h8.33a.5.5,0,0,1,0,1H10A.5.5,0,0,1,9.5,17.5Zm0,4.25a.5.5,0,0,1,.5-.5h5.38a.5.5,0,0,1,.5.5.51.51,0,0,1-.5.5H10A.5.5,0,0,1,9.5,21.75Zm0,6.06a.5.5,0,0,1,.5-.5H21.08L23.35,23a.52.52,0,0,1,.43-.27.55.55,0,0,1,.44.23L28,28.84l3.55-10.95a.53.53,0,0,1,.49-.35.51.51,0,0,1,.47.37l4.74,16.8,2.55-7.07a.5.5,0,0,1,.47-.33H54.05a.5.5,0,0,1,0,1H40.59l-3,8.2a.51.51,0,0,1-.47.33h0a.49.49,0,0,1-.47-.36L32,19.77,28.59,30.15a.51.51,0,0,1-.41.35.48.48,0,0,1-.48-.23l-3.86-6.06-2,3.83a.48.48,0,0,1-.44.27H10A.5.5,0,0,1,9.5,27.81Zm15.7,22H17.71a.5.5,0,0,0-.5.5v2.86a.5.5,0,0,0,.5.5H25.2a.5.5,0,0,0,.5-.5V50.27A.5.5,0,0,0,25.2,49.77Zm-.5,2.86H18.21V50.77H24.7Zm-10-2.86H7.17a.5.5,0,0,0-.5.5v2.86a.5.5,0,0,0,.5.5h7.49a.5.5,0,0,0,.5-.5V50.27A.5.5,0,0,0,14.66,49.77Zm-.5,2.86H7.67V50.77h6.49Zm21.59-2.86h-7.5a.5.5,0,0,0-.5.5v2.86a.51.51,0,0,0,.5.5h7.5a.51.51,0,0,0,.5-.5V50.27A.5.5,0,0,0,35.75,49.77Zm-.5,2.86h-6.5V50.77h6.5Zm11-2.86H38.8a.5.5,0,0,0-.5.5v2.86a.5.5,0,0,0,.5.5h7.49a.5.5,0,0,0,.5-.5V50.27A.5.5,0,0,0,46.29,49.77Zm-.5,2.86H39.3V50.77h6.49Zm11-2.86H49.34a.5.5,0,0,0-.5.5v2.86a.5.5,0,0,0,.5.5h7.49a.5.5,0,0,0,.5-.5V50.27A.5.5,0,0,0,56.83,49.77Zm-.5,2.86H49.84V50.77h6.49ZM11.41,38.52v4.13a.5.5,0,0,1-.5.5.5.5,0,0,1-.5-.5V38.52a.5.5,0,0,1,.5-.5A.5.5,0,0,1,11.41,38.52Zm10.55,0v4.13a.5.5,0,0,1-.5.5.5.5,0,0,1-.5-.5V38.52a.5.5,0,0,1,.5-.5A.5.5,0,0,1,22,38.52Zm10.54,0v4.13a.5.5,0,1,1-1,0V38.52a.5.5,0,0,1,1,0Zm10.54,0v4.13a.5.5,0,0,1-.5.5.5.5,0,0,1-.5-.5V38.52a.5.5,0,0,1,.5-.5A.5.5,0,0,1,43,38.52Zm10.55,0v4.13a.5.5,0,0,1-.5.5.5.5,0,0,1-.5-.5V38.52a.5.5,0,0,1,.5-.5A.5.5,0,0,1,53.59,38.52Zm-5.27,2.06v2.07a.5.5,0,0,1-.5.5.5.5,0,0,1-.5-.5V40.58a.5.5,0,0,1,.5-.5A.51.51,0,0,1,48.32,40.58Zm-10.55,0v2.07a.5.5,0,0,1-.5.5.5.5,0,0,1-.5-.5V40.58a.51.51,0,0,1,.5-.5A.5.5,0,0,1,37.77,40.58Zm-10.54,0v2.07a.5.5,0,0,1-.5.5.5.5,0,0,1-.5-.5V40.58a.5.5,0,0,1,.5-.5A.51.51,0,0,1,27.23,40.58Zm-10.54,0v2.07a.5.5,0,0,1-.5.5.5.5,0,0,1-.5-.5V40.58a.5.5,0,0,1,.5-.5A.51.51,0,0,1,16.69,40.58Z"></path></svg>