<svg id="undefined" xmlns="http://www.w3.org/2000/svg" viewBox="0 0 64 64" width="64" height="64" class="vds-svg"><path id="undefined" d="M58.15,37.06a4.9,4.9,0,1,0-5.42,4.84v6.66A12.78,12.78,0,0,1,40,61.32H27.41A12.78,12.78,0,0,1,14.65,48.56V41c2.1-.45,2.48-3.11,2.55-4.18,5.5-1.27,8.94-8.41,9.09-8.72a.53.53,0,0,0-.24-.7l-1.33-.67c2.61-4.55,3.2-9.85,3.4-14.48.13-2.78-.57-5-2.09-6.47a8.18,8.18,0,0,0-5.37-2.19A1.1,1.1,0,0,0,20.15,3a.53.53,0,0,0-.47.94.08.08,0,0,1,0,0s0,0,0,.07a.14.14,0,0,0,0,.07.08.08,0,0,1-.05,0,.52.52,0,0,0-.23.7.53.53,0,0,0,.47.29.46.46,0,0,0,.23-.06,1.16,1.16,0,0,0,.53-.54A7.16,7.16,0,0,1,25.3,6.49a7.25,7.25,0,0,1,1.78,5.68c-.2,4.51-.77,9.68-3.3,14.05l-1.18-.59a.53.53,0,0,0-.41,0,.55.55,0,0,0-.3.28c0,.07-3,6.47-7.75,6.6-4.8-.13-7.75-6.53-7.78-6.6a.55.55,0,0,0-.3-.28.53.53,0,0,0-.41,0l-1.2.6c-2.52-4.37-3.09-9.55-3.3-14.06A7.26,7.26,0,0,1,2.93,6.49,7.3,7.3,0,0,1,7.6,4.59a1.13,1.13,0,0,0,.53.55.46.46,0,0,0,.23.06.53.53,0,0,0,.47-.29.52.52,0,0,0-.24-.7.14.14,0,0,1-.07-.12A.14.14,0,0,1,8.59,4,.52.52,0,0,0,8.13,3a1.1,1.1,0,0,0-.51.51A8.23,8.23,0,0,0,2.2,5.74,8.22,8.22,0,0,0,.11,12.21c.21,4.63.8,9.94,3.41,14.49l-1.33.66a.53.53,0,0,0-.23.7c.14.31,3.59,7.45,9.09,8.72.06,1.07.44,3.73,2.55,4.18v7.6a13.82,13.82,0,0,0,13.81,13.8H40a13.82,13.82,0,0,0,13.81-13.8V41.9A4.88,4.88,0,0,0,58.15,37.06Zm-46.07-.71a.53.53,0,0,0-.43-.52C7.21,35.07,4,29.68,3.14,28.06l2.5-1.26c.84,1.62,3.8,6.6,8.5,6.72,4.66-.12,7.62-5.1,8.46-6.72l2.51,1.26c-.87,1.62-4.07,7-8.51,7.77a.53.53,0,0,0-.44.52s0,3.53-2,3.63C12.07,39.88,12.08,36.39,12.08,36.35Zm41.17,4.56a3.85,3.85,0,1,1,3.86-3.85A3.86,3.86,0,0,1,53.25,40.91Zm5.27-26.07H36.37a.53.53,0,1,1,0-1.05H58.52a.53.53,0,0,1,0,1.05Zm0,5.21H36.37a.53.53,0,0,1-.53-.53.52.52,0,0,1,.53-.52H58.52a.52.52,0,0,1,.52.52A.52.52,0,0,1,58.52,20.05Zm0,5.08H36.37a.53.53,0,1,1,0-1.05H58.52a.53.53,0,0,1,0,1.05Zm-7.29,5.21H36.37a.52.52,0,1,1,0-1H51.23a.52.52,0,1,1,0,1ZM58.69,3.89H56.63A2.7,2.7,0,0,0,54,1.64H40.26A2.72,2.72,0,0,0,37.6,3.89h-2a5.22,5.22,0,0,0-5.21,5.22V39.32a5.22,5.22,0,0,0,5.21,5.22H50.9a.53.53,0,0,0,.53-.53.52.52,0,0,0-.53-.52H35.62a4.17,4.17,0,0,1-4.17-4.17V9.11a4.17,4.17,0,0,1,4.17-4.17h1.94V5a2.7,2.7,0,0,0,2.7,2.7H54A2.71,2.71,0,0,0,56.68,5V4.94h2a4.17,4.17,0,0,1,4.17,4.17V39.32a4.17,4.17,0,0,1-4.17,4.17H55.44a.52.52,0,0,0-.52.52.53.53,0,0,0,.52.53h3.25a5.22,5.22,0,0,0,5.22-5.22V9.11A5.22,5.22,0,0,0,58.69,3.89ZM55.63,5A1.65,1.65,0,0,1,54,6.66H40.26A1.65,1.65,0,0,1,38.61,5V4.34a1.41,1.41,0,0,1,.07-.45,1.65,1.65,0,0,1,1.58-1.21H54a1.66,1.66,0,0,1,1.59,1.21,1.76,1.76,0,0,1,.07.45V5Z"></path></svg>