<svg id="undefined" xmlns="http://www.w3.org/2000/svg" viewBox="0 0 64 53" width="64" height="64" class="vds-svg"><path id="undefined" class="cls-1" d="M39.93,32.41l-3.28,1.26a12.41,12.41,0,0,1-4,.64h-.19a12.51,12.51,0,0,1-4-.63L25.22,32.4a3,3,0,0,0-3.74,1.82c-1.41,3.66.43,7.66,3,9.71a9.47,9.47,0,0,0,1.05.74c.22,3,3.3,5.39,7.08,5.39s7-2.47,7.08-5.54a6.76,6.76,0,0,0,1-.59c2.55-2,4.39-6,3-9.71A3,3,0,0,0,39.93,32.41ZM32.59,49.06c-3.36,0-6.1-2.12-6.1-4.72a4.4,4.4,0,0,1,1.18-3,4.33,4.33,0,0,0-.19,1.27c0,2.19,2.29,4,5.11,4s5-1.74,5.1-4a3.8,3.8,0,0,0-.09-1,4.19,4.19,0,0,1,1.08,2.71C38.68,46.94,36,49.06,32.59,49.06Zm-2.25-9.15A1.87,1.87,0,0,0,32.05,41h1.07a1.85,1.85,0,0,0,1.69-1.11,2.59,2.59,0,0,1,1.88,2.67c0,1.65-1.88,3-4.1,3s-4.11-1.34-4.11-3A2.59,2.59,0,0,1,30.34,39.91Zm2.78.12H32.05a.88.88,0,0,1-.86-.93.87.87,0,0,1,.86-.86h1.07a.89.89,0,0,1,.87.93A.87.87,0,0,1,33.12,40Zm7,3.11s-.22.15-.52.31A6.25,6.25,0,0,0,35,38.9a1.86,1.86,0,0,0-1.85-1.66H32.05a1.87,1.87,0,0,0-1.84,1.68,5.53,5.53,0,0,0-4.64,4.6l-.48-.36c-2.21-1.79-3.9-5.4-2.68-8.58a2,2,0,0,1,2.48-1.23l3.32,1.27a13.51,13.51,0,0,0,4.28.69h.19A13.83,13.83,0,0,0,37,34.62l3.27-1.27a2,2,0,0,1,2.5,1.23C44,37.76,42.29,41.37,40.11,43.14Zm7.76-15.78a.5.5,0,0,1-.09.7.6.6,0,0,1-.31.1.47.47,0,0,1-.39-.2c-1.26-1.68-2.59-2.49-3.86-2.46-2.09.08-3.6,2.4-3.62,2.43a.5.5,0,0,1-.84-.54c.07-.12,1.8-2.78,4.42-2.88C44.81,24.45,46.41,25.4,47.87,27.36ZM21.8,25.5c-1.31,0-2.6.78-3.87,2.46a.51.51,0,0,1-.4.2.48.48,0,0,1-.3-.11.5.5,0,0,1-.1-.7c1.48-2,3.08-2.93,4.72-2.84,2.61.1,4.32,2.77,4.4,2.88a.51.51,0,0,1-.16.69.49.49,0,0,1-.69-.16S23.89,25.59,21.8,25.5Zm42.13.21c-.49-2.82-3.66-3.62-4.79-3.82a28.3,28.3,0,0,0-3.64-9.41C51.05,4.9,42.22,0,33,0h-.57C26.57,0,21.13.59,14.69,5.67,6,12.53,5.14,20.05,5.07,22A6,6,0,0,0,1,23.86,4.46,4.46,0,0,0,0,27.34c.32,2.77,3.05,3.87,4.78,4.12.16.81.87,2.77,3.37,7.85C12.42,47.9,21.82,52.89,34,53h.23c13.38,0,20.64-10.19,22-12.25a22.68,22.68,0,0,0,1.43-2.57,25.21,25.21,0,0,0,1.22-3,24.25,24.25,0,0,0,1-3.91,5.48,5.48,0,0,0,3.29-2A4.43,4.43,0,0,0,63.93,25.71Zm-1.62,2.91a4.48,4.48,0,0,1-3,1.68.51.51,0,0,0-.45.45,21.8,21.8,0,0,1-1,4.09,23.88,23.88,0,0,1-1.17,2.91,20.78,20.78,0,0,1-1.37,2.46C54.08,42.19,47.09,52,34.23,52H34c-11.79-.11-20.87-4.89-24.93-13.13-3-6.08-3.28-7.46-3.31-7.72a.44.44,0,0,0,0-.23.51.51,0,0,0-.46-.41S1.38,30.19,1,27.23a3.48,3.48,0,0,1,.7-2.72A5.3,5.3,0,0,1,5.6,23a.51.51,0,0,0,.47-.52c0-.09-.23-8.54,9.24-16A23.24,23.24,0,0,1,28.76,1.14,7.93,7.93,0,0,0,26,3.33a6.63,6.63,0,0,0-1.29,5.13,6.85,6.85,0,0,0,2.86,4.91,8.77,8.77,0,0,0,5,1.49,8.59,8.59,0,0,0,1.86-.19,6.57,6.57,0,0,0,4.69-3.93,3.71,3.71,0,0,0-.33-3.54,4.58,4.58,0,0,0-4.53-1.69A3,3,0,0,0,31.91,8a.5.5,0,0,0,.41.57.49.49,0,0,0,.58-.4,1.93,1.93,0,0,1,1.57-1.65A3.55,3.55,0,0,1,38,7.8a2.68,2.68,0,0,1,.2,2.59,5.52,5.52,0,0,1-4,3.3,8.08,8.08,0,0,1-6.08-1.14,5.72,5.72,0,0,1-2.44-4.21A5.69,5.69,0,0,1,26.74,4C28.59,1.6,32.11,1.06,32.51,1H33A25.35,25.35,0,0,1,54.64,13a26.27,26.27,0,0,1,3.56,9.39.51.51,0,0,0,.44.45s3.85.43,4.3,3.05A3.39,3.39,0,0,1,62.31,28.62Z"></path></svg>