<svg id="undefined" xmlns="http://www.w3.org/2000/svg" viewBox="0 0 64 64" width="64" height="64" class="vds-svg"><path id="undefined" class="cls-2" d="M30.44,21.34V58.66a.5.5,0,0,1-1,0V34.41a7.16,7.16,0,0,0-6.82-7.14,8.34,8.34,0,0,1-8.25,7.25.5.5,0,1,1,0-1,7.33,7.33,0,0,0,0-14.65.5.5,0,0,1,0-1,8.33,8.33,0,0,1,8.32,8.32v.08a8.2,8.2,0,0,1,6.75,4.23V21.34a7.18,7.18,0,0,0-6.82-7.15A8.21,8.21,0,0,1,20.25,19a.48.48,0,0,1-.7,0,.5.5,0,0,1,0-.71A7.34,7.34,0,0,0,19.55,8,7.41,7.41,0,0,0,9.18,8,24.87,24.87,0,0,0,1,26.1,24.92,24.92,0,0,0,9.16,44.24a7.42,7.42,0,0,0,10.39,0,7.34,7.34,0,0,0,0-10.36.49.49,0,1,1,.7-.7A8.31,8.31,0,0,1,14.4,47.35,8.61,8.61,0,0,1,8.47,45,25.88,25.88,0,0,1,0,26.1,25.92,25.92,0,0,1,8.49,7.22a8.4,8.4,0,0,1,11.76,0,8.23,8.23,0,0,1,2.44,5.89v0A8.17,8.17,0,0,1,30.44,21.34ZM55.51,7.22a8.4,8.4,0,0,0-11.76,0,8.23,8.23,0,0,0-2.44,5.89v0a8.17,8.17,0,0,0-7.75,8.14V58.66a.5.5,0,0,0,.5.5.5.5,0,0,0,.5-.5V34.41a7.16,7.16,0,0,1,6.82-7.14,8.34,8.34,0,0,0,8.25,7.25.5.5,0,0,0,0-1,7.33,7.33,0,0,1,0-14.65.5.5,0,0,0,0-1,8.33,8.33,0,0,0-8.32,8.32v.08a8.2,8.2,0,0,0-6.75,4.23V21.34a7.18,7.18,0,0,1,6.82-7.15A8.21,8.21,0,0,0,43.75,19a.48.48,0,0,0,.7,0,.5.5,0,0,0,0-.71A7.34,7.34,0,0,1,44.45,8,7.41,7.41,0,0,1,54.82,8,24.87,24.87,0,0,1,63,26.1a24.92,24.92,0,0,1-8.16,18.14A7.34,7.34,0,0,1,44.45,33.86a.49.49,0,0,0-.7-.7,8.32,8.32,0,0,0,0,11.77,8.19,8.19,0,0,0,5.85,2.42A8.61,8.61,0,0,0,55.53,45,25.88,25.88,0,0,0,64,26.1,25.92,25.92,0,0,0,55.51,7.22Z"></path></svg>