<svg id="undefined" xmlns="http://www.w3.org/2000/svg" viewBox="0 0 56 64" width="64" height="64" class="vds-svg"><path id="undefined" class="cls-1" d="M52.55,30.23C48.84,21.28,44,14.51,40,12.56a4.67,4.67,0,0,0-4.33-.06c-1.79.95-3.05,3.2-3.56,6.34a5.89,5.89,0,0,1-1.49-4.38V.5a.5.5,0,0,0-1,0v14A6.74,6.74,0,0,0,31.83,20l.05,0c-.15,1-.32,2.17-.49,3.35l-.94-.94a3.48,3.48,0,0,0-2.5-1,3.94,3.94,0,0,0-2.76,1l-.63.63c-.16-1.14-.32-2.23-.47-3.23h0a8.31,8.31,0,0,0,1.84-4.07h2.82a.51.51,0,0,0,.5-.5.5.5,0,0,0-.5-.5H26c0-.1,0-.19,0-.29V12.9h2.71a.5.5,0,0,0,.5-.5.51.51,0,0,0-.5-.5H26V10.09h2.71a.5.5,0,0,0,.5-.5.51.51,0,0,0-.5-.5H26V7.31h2.71a.5.5,0,1,0,0-1H26V4.44h2.71a.5.5,0,0,0,.5-.5.51.51,0,0,0-.5-.5H26V.5a.5.5,0,0,0-1,0v14a7.36,7.36,0,0,1-1.18,4c-.56-2.93-1.78-5-3.49-5.94a4.67,4.67,0,0,0-4.33.06C12,14.51,7.16,21.28,3.45,30.23a48.53,48.53,0,0,0-2.1,29.33,5.79,5.79,0,0,0,3.5,4.15A4.82,4.82,0,0,0,6.47,64a5.31,5.31,0,0,0,3.12-1.08l11-8C24.32,52.22,27,47.34,27,43.31c0-2.79-1.2-11.71-2.26-19l0,0,1.12-1.11a2.91,2.91,0,0,1,2-.73,2.53,2.53,0,0,1,1.8.73l1.41,1.41.07.05c-1,7.27-2.21,16-2.21,18.72,0,4,2.68,8.91,6.37,11.59l11,8A5.31,5.31,0,0,0,49.53,64a4.82,4.82,0,0,0,1.62-.29,5.79,5.79,0,0,0,3.5-4.15A48.53,48.53,0,0,0,52.55,30.23ZM20.05,54.1l-11,8a4,4,0,0,1-3.81.66,4.81,4.81,0,0,1-2.87-3.45A47.52,47.52,0,0,1,4.38,30.61C8,21.88,12.63,15.31,16.47,13.46A4.29,4.29,0,0,1,18.34,13a3.25,3.25,0,0,1,1.56.39c1.55.82,2.64,2.89,3.09,5.83.9,6.05,3,20.52,3,24.09S23.44,51.62,20.05,54.1Zm33.63,5.22a4.81,4.81,0,0,1-2.87,3.45A4,4,0,0,1,47,62.11l-11-8c-3.4-2.48-6-7.11-6-10.79s2.11-18,3-24.09c.45-2.94,1.54-5,3.09-5.83A3.25,3.25,0,0,1,37.66,13a4.29,4.29,0,0,1,1.87.46c3.84,1.85,8.48,8.42,12.09,17.15A47.52,47.52,0,0,1,53.68,59.32Z"></path></svg>