<svg id="undefined" xmlns="http://www.w3.org/2000/svg" viewBox="0 0 64 64" width="64" height="64" class="vds-svg"><path id="undefined" class="cls-2" d="M19.73,41.81a.49.49,0,0,1-.49.41h-.09A7.87,7.87,0,0,1,18,41.88c.94,4.43-1.24,9.6-5.57,12.91a16.26,16.26,0,0,0-5.32,6.9.5.5,0,0,1-.48.34l-.16,0a.5.5,0,0,1-.31-.64A16.9,16.9,0,0,1,11.8,54c4.26-3.26,6.3-8.42,5-12.61a20.27,20.27,0,0,1-6.57-5.25c-4.33-4.85-5.95-16.06-1.45-25,4-8,11.94-11.95,22.17-11C44.44,1.36,50.6,6.18,53.39,10a13.79,13.79,0,0,1,2.88,8.25.51.51,0,0,1-.52.47.5.5,0,0,1-.47-.53c0-.6.49-14.8-24.4-17.07C21.06.24,13.55,4,9.7,11.61,5.38,20.17,6.89,30.87,11,35.49c4.25,4.95,8.29,5.74,8.33,5.74A.5.5,0,0,1,19.73,41.81Zm36.33-12.5c-.67-.84-1.56-2-2.7-3.45A14.71,14.71,0,0,0,52.14,16a.49.49,0,0,0-.68-.17.48.48,0,0,0-.17.68,14,14,0,0,1,1,9.36.54.54,0,0,0,.09.41c1.22,1.6,2.16,2.77,2.86,3.65a12.9,12.9,0,0,1,1.62,2.21,2.43,2.43,0,0,1-.41.31,26.13,26.13,0,0,1-3,1.58.52.52,0,0,0-.3.48c0,.12.41,11.93-5.17,13.87-2.79.83-8.41-1.7-12.23-4.59a.5.5,0,0,0-.7.09.49.49,0,0,0,.1.7,30.24,30.24,0,0,0,4.13,2.63,11.14,11.14,0,0,0-2.17,7.52c.33,3.33,2.36,6.42,6,9.17a.49.49,0,0,0,.3.1.51.51,0,0,0,.4-.2.5.5,0,0,0-.1-.7c-3.43-2.57-5.33-5.42-5.63-8.46a10.37,10.37,0,0,1,2.08-7,16.25,16.25,0,0,0,6.56,1.87,5.3,5.3,0,0,0,1.53-.2c5.8-2,5.92-12.46,5.88-14.52A25.93,25.93,0,0,0,57,33.29a1.56,1.56,0,0,0,.85-1C58,31.7,57.54,31.15,56.06,29.31Zm-17.76-13A2.83,2.83,0,0,1,37.12,14a.19.19,0,0,0,0-.07v-.07h0a.54.54,0,0,0-.07-.13.08.08,0,0,1,0,0l-.13-.1h0a.44.44,0,0,0-.15,0h-.08a.5.5,0,0,0-.13,0h0A2.83,2.83,0,0,1,33,11.67l0-.05a.41.41,0,0,0-.05-.09l-.06-.07-.05-.05h0l-.09,0-.09,0h-.23l0,0-.09,0-.07.07,0,0a2.76,2.76,0,0,1-1.85,1.12,2.81,2.81,0,0,1-2.1-.51.5.5,0,1,0-.59.8,3.81,3.81,0,0,0,2.26.75,3.86,3.86,0,0,0,2.54-1,3.84,3.84,0,0,0,3.34,2,3.23,3.23,0,0,0,.53,0,3.88,3.88,0,0,0,1.53,2.51.52.52,0,0,0,.29.09.5.5,0,0,0,.29-.91Zm-1.24,4.78a3.84,3.84,0,0,0-3.83-3.83H25.69A1.72,1.72,0,0,1,24,15.56a.5.5,0,0,0-1,0,2.7,2.7,0,0,0,1.16,2.22A2.74,2.74,0,0,0,23,20a.5.5,0,0,0,1,0,1.73,1.73,0,0,1,1.73-1.73h7.54a2.83,2.83,0,1,1,0,5.66H31a3.8,3.8,0,0,0-2.85-1.3H18.23a3.19,3.19,0,1,1,0-6.37.39.39,0,0,0,.18,0s0,0,.06,0l.07,0,0,0a.27.27,0,0,0,.07-.08.43.43,0,0,1,0-.07.32.32,0,0,0,0-.09.44.44,0,0,0,0-.1s0,0,0,0,0,0,0-.06a.29.29,0,0,0,0-.1.3.3,0,0,0,0-.1l0,0a2.83,2.83,0,0,1,2.5-4.59,2.79,2.79,0,0,1,1.9,1,.51.51,0,0,0,.71.08.5.5,0,0,0,.13-.19.49.49,0,0,0,.05-.41A2.85,2.85,0,0,1,25.7,7.8a2.83,2.83,0,0,1,3.58,1.79.5.5,0,0,0,1-.19.43.43,0,0,1,0-.05,2.83,2.83,0,1,1,5.66,0v0a.52.52,0,0,0,.14.39.51.51,0,0,0,.71,0,2.89,2.89,0,0,1,4,0,2.77,2.77,0,0,1,.83,2,2.84,2.84,0,0,1-.8,2,.47.47,0,0,0-.17.37h0a.46.46,0,0,0,.14.36.5.5,0,0,0,.35.15h.05a3.15,3.15,0,0,1,0,6.29H38.56a.5.5,0,0,0-.5.5.5.5,0,0,0,.5.5h2.57a4.14,4.14,0,0,0,.92-8.18,3.82,3.82,0,0,0-3.28-5.78h0a3.84,3.84,0,0,0-2,.55A3.81,3.81,0,0,0,29.51,8a3.83,3.83,0,0,0-6.34.76,3.76,3.76,0,0,0-.39,1.63,3.81,3.81,0,0,0-1.55-.53,3.75,3.75,0,0,0-2.81.83,3.84,3.84,0,0,0-1,4.66,4.17,4.17,0,0,0,.28,8.22,2.4,2.4,0,0,0-.53,1.5,2.44,2.44,0,0,0,2.44,2.44h4.71a.5.5,0,0,0,.5-.5.5.5,0,0,0-.5-.5H19.57a1.44,1.44,0,1,1,0-2.88H28.1a2.83,2.83,0,0,1,0,5.66h-2a.51.51,0,0,0-.17,0,3.83,3.83,0,0,0-3.48,3.8v3.74a.5.5,0,0,0,.5.5.51.51,0,0,0,.5-.5V33.13a2.83,2.83,0,0,1,2.83-2.83H28.1a3.84,3.84,0,0,0,3.83-3.83,3.75,3.75,0,0,0-.33-1.53h1.63A3.84,3.84,0,0,0,37.06,21.11Z"></path></svg>