<svg id="undefined" xmlns="http://www.w3.org/2000/svg" viewBox="0 0 64 64" width="64" height="64" class="vds-svg">
    <path id="undefined" class="e" d="M37.14,37.76c-.31,5.07-1.5,11.48-2.32,13.61-.51,1.54-1.24,2.56-2.23,3.1-.54,.25-1.07,.35-1.58,.35-1.06,0-1.99-.44-2.48-.8-.55-.41-1.35-1.19-2.61-3.61-.46-.84-.94-1.79-1.42-2.74-.68-1.35-1.39-2.74-2.05-3.84-.19-.32-.49-.8-.88-.93-.03,0-.12-.01-.15,0-.53,.12-1.1,1.31-1.66,2.47-.28,.59-.6,1.25-.96,1.9l-.2,.35c-1.37,2.45-3.45,6.16-5.89,6.9-1.59,.46-3.69,.26-4.79-1.22-.39-.64-.51-1.13-.62-2.44-.11-1.21-.12-2.61-.04-4.17h0s0-.03,0-.04l.04-.64c.09-1.51-.02-2.61-1.57-8.21-1.23-4.08-1.74-5.52-2.45-7.5-.34-.94-.72-2-1.24-3.53-1.29-3.89-1.47-4.66-1.57-5.27C.04,19.56-.1,17.59,.07,15.65c.2-1.92,.5-4.81,2.82-7.36l.09-.09c2.06-2.19,4.56-3.33,7.03-3.19,2.9,.14,4.7,1.13,6.44,2.1,.33,.19,.67,.37,1.02,.55,1.88,1,3.16,1.67,4.34,2.21,.72-.65,5.81-5.01,11.73-4.45,1.52,.23,3.28,.63,5,1.86,3.18,2.37,3.69,5.55,3.91,6.91l.03,.19c.32,2.56-.11,4.4-1.16,7.99-.18,.55-.39,1.22-.69,2.17l-.86,2.72c-.52,1.46-1.48,4.75-1.65,5.43-.06,.23-.26,.38-.48,.38-.04,0-.08,0-.12-.02-.27-.07-.43-.34-.36-.61,.2-.78,1.15-4.05,1.67-5.51l.86-2.7c.3-.96,.52-1.64,.69-2.17,1.03-3.51,1.42-5.18,1.13-7.55l-.03-.18c-.21-1.34-.66-4.13-3.51-6.26-1.76-1.25-3.64-1.54-4.54-1.67-4.85-.47-9.29,2.83-10.59,3.91,.51,.22,1.04,.42,1.62,.63,1.6,.5,3.3,.98,4.81,1.01,.28,0,.5,.24,.49,.51,0,.28-.21,.51-.51,.49-1.71-.04-3.53-.57-5.11-1.06-2.37-.86-3.91-1.65-7.13-3.36-.35-.19-.69-.37-1.03-.56-1.71-.95-3.33-1.85-6.01-1.98-2.23-.11-4.37,.87-6.25,2.88l-.09,.09c-2.08,2.29-2.35,4.87-2.55,6.76-.16,1.83-.02,3.7,.4,5.55,.1,.6,.27,1.33,1.54,5.15,.52,1.51,.89,2.57,1.23,3.51,.71,2,1.23,3.44,2.47,7.56,1.52,5.48,1.71,6.81,1.6,8.55h0s0,.08,0,.14c-.11,1.72-.11,3.26,0,4.57,.1,1.22,.2,1.55,.45,1.97,.78,1.04,2.46,1.17,3.68,.82,2.05-.62,4.08-4.26,5.3-6.43l.2-.35c.35-.62,.64-1.24,.93-1.84,.71-1.48,1.29-2.66,2.2-2.97-.99-1.19-2.04-2.13-3.4-3.08-.23-.16-.28-.47-.13-.7,.16-.23,.47-.28,.7-.12,1.91,1.33,3.25,2.67,4.63,4.61,0,0,0,.02,0,.02,.17,.22,.32,.44,.42,.61,.68,1.12,1.39,2.54,2.09,3.9,.48,.94,.95,1.88,1.41,2.72,1.19,2.28,1.89,2.96,2.32,3.28,.06,.04,1.49,1.08,3.01,.36,.73-.4,1.31-1.24,1.75-2.54,.8-2.09,1.96-8.35,2.26-13.33,.02-.28,.26-.49,.53-.47,.28,.02,.49,.25,.47,.53Zm-7.18-13.74c-.28,0-.5,.22-.5,.5v5.82c0,.28,.22,.5,.5,.5s.5-.22,.5-.5v-5.82c0-.28-.22-.5-.5-.5Zm33.58,30.85l-2.92,3.45c-.33,.39-.8,.63-1.31,.67-.05,0-.11,0-.16,0-.46,0-.89-.16-1.24-.46,0,0-12.71-10.84-15.74-13.43-.05-.02-.1-.05-.15-.08-.04-.04-.07-.08-.1-.12-.25-.22-.4-.34-.41-.35-1.79-1.52-2.21-3.99-1.11-5.75l-7.14-6.1h0c-1.35,1.41-3.26,2.3-5.36,2.3-4.1,0-7.44-3.35-7.44-7.46s3.34-7.46,7.44-7.46,7.44,3.35,7.44,7.46c0,1.64-.54,3.16-1.44,4.39,0,0,.01,0,.02,.01l7.13,6.09c.64-.59,1.47-.97,2.39-1.04,1.23-.11,2.51,.33,3.5,1.18h0c.11,.1,16.39,13.99,16.39,13.99,.81,.69,.91,1.91,.22,2.72ZM26.04,33.72l-.29-12.27c-2.5,.89-4.29,3.28-4.29,6.08s1.94,5.38,4.58,6.19Zm8.29-6.19c0-3.56-2.89-6.46-6.44-6.46-.39,0-.78,.04-1.15,.11l.3,12.75c.28,.04,.56,.06,.85,.06,3.55,0,6.44-2.9,6.44-6.46Zm7.83,16.25s.06,.05,.14,.12l4.12-4.86c-.08-.07-.14-.12-.15-.12-.72-.61-1.61-.95-2.49-.95-.09,0-.18,0-.27,.01-.82,.07-1.54,.43-2.04,1.02-1.14,1.34-.82,3.49,.7,4.79Zm20.51,9.12s-12.06-10.29-15.49-13.21l-4.12,4.86c3.43,2.92,15.49,13.22,15.49,13.22,.19,.16,.43,.24,.67,.22,.25-.02,.47-.14,.63-.33l2.92-3.45c.33-.39,.29-.98-.1-1.31Z"></path>
</svg>