<svg id="undefined" xmlns="http://www.w3.org/2000/svg" viewBox="0 0 64 64" width="64" height="64" class="vds-svg"><path id="undefined" class="cls-2" d="M6.08,30.62A17.74,17.74,0,0,1,6.15,37a39.41,39.41,0,0,1-1.67,6A58.37,58.37,0,0,0,1,63.5a.5.5,0,0,1-.5.5.5.5,0,0,1-.5-.5A59.37,59.37,0,0,1,3.53,42.71a39.36,39.36,0,0,0,1.64-5.88,17.12,17.12,0,0,0-.07-6A20,20,0,0,0,3.74,26.3c-.2-.5-.41-1-.62-1.48C1.31,20.56-.75,15.74,1.4,9.75c2.4-6.61,9.15-10.24,18-9.7A14.25,14.25,0,0,1,27.69,3.2a.5.5,0,0,1,.07.7.49.49,0,0,1-.7.07,13.36,13.36,0,0,0-7.68-2.92c-8.56-.51-14.76,2.78-17,9-2,5.62-.13,10.05,1.7,14.34.21.49.42,1,.62,1.47A21.15,21.15,0,0,1,6.08,30.62Zm28.67-5.16H32.63a.5.5,0,0,0-.5.5V29.5a.5.5,0,0,0,1,0v-3h1.62a1.76,1.76,0,0,0,1.48-.77A1.82,1.82,0,0,0,36.41,24L34,18.36a7.66,7.66,0,0,1-.69-2.86,24.66,24.66,0,0,0-.33-2.8.5.5,0,1,0-1,.18,22.61,22.61,0,0,1,.31,2.68A8.61,8.61,0,0,0,33,18.77l2.44,5.59a.79.79,0,0,1-.08.77A.77.77,0,0,1,34.75,25.46ZM22.06,43.67a3.69,3.69,0,0,1-.49-2.56l1-6H25a.5.5,0,0,0,.5-.5.5.5,0,0,0-.5-.5H20.9a2.46,2.46,0,0,1-1.59-.59L15.19,30a.51.51,0,0,0-.71.06.49.49,0,0,0,.06.7l4.13,3.5a3.43,3.43,0,0,0,2.23.82h.68l-1,5.83a4.71,4.71,0,0,0,.63,3.26c1,1.6,2.7,4.36,4.25,6.83a21.34,21.34,0,0,1,3,11.9.5.5,0,0,0,.48.52h0a.51.51,0,0,0,.5-.49A22.3,22.3,0,0,0,26.31,50.5C24.76,48,23.05,45.27,22.06,43.67ZM64,23.88V61a2.51,2.51,0,0,1-2.51,2.5H40.57A2.5,2.5,0,0,1,38.06,61V55.83a3.62,3.62,0,0,1,2.33-3.37l6.79-2.6v-9a2,2,0,0,1-1,.28h-3a2,2,0,0,1-2-2V36.42H29.64a2.21,2.21,0,1,1,0-4.41H41.16V9.88H29.64a2.21,2.21,0,1,1,0-4.41H41.16V3.14a2,2,0,0,1,2-2h3a2,2,0,0,1,2,2V49.48L61.4,44.42a.49.49,0,0,1,.64.28.5.5,0,0,1-.29.65L47.88,50.66h0l-7.13,2.73a2.65,2.65,0,0,0-1.68,2.44V61a1.51,1.51,0,0,0,1.51,1.5H61.49A1.51,1.51,0,0,0,63,61V23.88a2,2,0,0,0-.92-1.69L49.83,14.34a.5.5,0,0,1,.54-.84l12.25,7.85A3,3,0,0,1,64,23.88Zm-22.84-15V6.47H29.64a1.21,1.21,0,1,0,0,2.41Zm0,26.54V33H29.64a1.21,1.21,0,1,0,0,2.41Zm6,3.72v-36a1,1,0,0,0-1-1h-3a1,1,0,0,0-1,1v36a1,1,0,0,0,1,1h3A1,1,0,0,0,47.18,39.14Z"></path></svg>