<svg id="undefined" xmlns="http://www.w3.org/2000/svg" viewBox="0 0 64 64" width="64" height="64" class="vds-svg"><path id="undefined" class="cls-2" d="M52,24.57c-.29-3.93-2.76-7.45-5.37-11.17C43.76,9.37,40.84,5.2,41,.52A.5.5,0,0,0,40.51,0h0a.5.5,0,0,0-.5.48c-.16,5,2.86,9.33,5.79,13.49,2.53,3.61,4.92,7,5.19,10.67a9.34,9.34,0,0,1-.09,2.2A11.54,11.54,0,0,1,37,25.38c.52-.59,1-1.22,1.65-1.93,1.22-1.47,1.57-2.78,1-3.89-1.4-3-8.62-3-9-3-.67,0-6.59.1-7.87,2.91-.6,1.33-.06,3,1.59,4.86.33.38.65.72,1,1.05a34.53,34.53,0,0,1-10.37,6.16A8.09,8.09,0,0,1,13.16,27c-1-6.9,3.23-11.65,6.35-15.11C23.08,8,22.08.73,22,.43A.52.52,0,0,0,21.47,0a.51.51,0,0,0-.42.57c0,.07,1,7.06-2.29,10.69s-7.7,8.56-6.58,15.94c.44,2.9,1.49,4.84,3.23,5.94a7.32,7.32,0,0,0,4,1,20.9,20.9,0,0,0,5.93-1.07c6.68-2,7.6-1.87,12.8.14a11.78,11.78,0,0,0,10.73-1.16A8,8,0,0,0,52,24.57ZM23.8,19.89c.82-1.82,4.91-2.31,7-2.32h.05c2.68,0,7.18.65,8,2.41.34.73,0,1.68-.91,2.83-2.77,3.32-4.56,5.36-6.45,5.39h0c-1.58,0-3.43-1.36-6.18-4.51C23.85,22.11,23.37,20.83,23.8,19.89ZM48.24,31.25a10.72,10.72,0,0,1-9.78,1C33,30.16,31.87,30,25,32.11c-4.29,1.31-7.17,1.37-9.06.18h0a34.29,34.29,0,0,0,10.19-6.17c2.13,2.15,3.75,3.09,5.29,3.09h.05c1.68,0,3.11-1.12,4.91-3.08a12.1,12.1,0,0,0,8.3,3.36,14.17,14.17,0,0,0,5.87-1.34A6.55,6.55,0,0,1,48.24,31.25Zm-5.22,6a14.31,14.31,0,0,0-8.32.35,23.13,23.13,0,0,1-4,.82,9.81,9.81,0,0,1-5-.76,14.06,14.06,0,0,0-5.2-1,5.77,5.77,0,0,0-5,2.78,6.38,6.38,0,0,0-.57,1.21l0,0s0,0,0,.06c-1,2.66-.48,6.14,1.38,9.81a46.57,46.57,0,0,1,4.62,13,.5.5,0,0,0,.56.43.51.51,0,0,0,.43-.57,46.28,46.28,0,0,0-4.72-13.32c-1.63-3.22-2.12-6.24-1.46-8.58a43.58,43.58,0,0,0,14,2.67c.36,0,.72,0,1.08,0,6.86-.26,13.73-3.3,15.31-4a3.87,3.87,0,0,1,.57,1c.94,2.5-.46,6.55-4.17,12-2.35,3.48-2.35,5.39-1.73,10.4a.5.5,0,0,0,.49.44h.06a.51.51,0,0,0,.44-.56c-.59-4.76-.67-6.42,1.57-9.72,4-5.83,5.35-10.06,4.28-12.93C46.94,39.09,45.41,37.9,43,37.28Zm-12.29,5.9a41.84,41.84,0,0,1-14.68-2.59c.1-.2.19-.42.3-.61a4.75,4.75,0,0,1,4.18-2.3,12.92,12.92,0,0,1,4.86,1,10.89,10.89,0,0,0,5.41.82A24.17,24.17,0,0,0,35,38.59a13.44,13.44,0,0,1,7.81-.34,7.21,7.21,0,0,1,2.54,1.14C43.29,40.3,36.92,42.94,30.73,43.18ZM28.65,57.63a33.36,33.36,0,0,1,.61,5.87.5.5,0,0,1-1,0,32.84,32.84,0,0,0-.59-5.67c-.47-2.32-5.59-8.74-7.52-11a.51.51,0,0,1,.06-.71.49.49,0,0,1,.7.06C21.2,46.51,28,54.58,28.65,57.63Zm9-10.92c0,.08-4.18,9-4.32,11.64a49,49,0,0,0,0,5.12.5.5,0,0,1-.47.53h0a.5.5,0,0,1-.5-.47,51.16,51.16,0,0,1,0-5.23c.16-2.88,4.24-11.65,4.41-12a.49.49,0,0,1,.66-.24A.51.51,0,0,1,37.64,46.71Z"></path></svg>