<svg id="undefined" xmlns="http://www.w3.org/2000/svg" viewBox="0 0 64 64" width="64" height="64" class="vds-svg"><path id="undefined" class="cls-2" d="M57.57,14.64C54,4.72,43.91-.74,30.62.08,21.28.66,11,7.06,10,23.29A12,12,0,0,1,9,27.73L5.23,36.27A2.51,2.51,0,0,0,5.5,38.6a2.39,2.39,0,0,0,2,1h2.71v8.72a4.37,4.37,0,0,0,4.41,4.41h6.85l3.69,10.88a.51.51,0,0,0,.48.34.45.45,0,0,0,.16,0,.5.5,0,0,0,.31-.63L22.3,52.12a.49.49,0,0,0-.47-.34H14.62a3.33,3.33,0,0,1-3.41-3.41v-8.8c3.19-.25,8.56-1,12.69-1.53l3.68-.48c3.43-.42,7.81,1.72,9.89,6.49a19,19,0,0,0-3.54-2.16.46.46,0,0,0-.23-.12,22.6,22.6,0,0,0-8.24-2C21,39.5,14.88,42.37,12,44.47a.53.53,0,0,0-.21.42.5.5,0,0,0,.22.4c1.83,1.25,4.17.51,6.88-.36a30.35,30.35,0,0,1,5.43-1.35,10.69,10.69,0,0,1,7.31,2,4.86,4.86,0,0,0,2.56,1c1.32-.09,2.94,1.74,3.8,3.59.43.94-.39,5.82-1.27,10a0,0,0,0,0,0,0c-.23,1.11-.47,2.18-.69,3.11a.49.49,0,0,0,.37.6l.11,0a.5.5,0,0,0,.49-.39c.12-.51.37-1.57.65-2.89l6.19-3.33c0,3.43-.08,6-.08,6.09a.51.51,0,0,0,.49.52.53.53,0,0,0,.51-.49c0-.63.35-12.7-.44-19.54a.77.77,0,0,0,0-.15,14.07,14.07,0,0,0-.83-3.8c-2.12-4.49-8.61-11-17.78-10.45-8.87.53-15.38,7.8-16.46,9.08H7.5A1.41,1.41,0,0,1,6.32,38a1.5,1.5,0,0,1-.16-1.39l3.7-8.51A12.93,12.93,0,0,0,11,23.35C11.92,7.77,21.77,1.63,30.68,1.08c13-.8,22.47,4.28,26,13.89,3.07,8.62.21,15.4-2.57,22q-.48,1.13-.93,2.22A31.89,31.89,0,0,0,51,46.27a27.34,27.34,0,0,0-.11,9.6l1.31,7.71a.5.5,0,0,0,1-.16l-1.3-7.72a26.26,26.26,0,0,1,.1-9.24,31.31,31.31,0,0,1,2.07-6.92c.3-.73.62-1.48.93-2.22C57.7,30.9,60.78,23.62,57.57,14.64ZM27.45,36.57l-3.68.48c-1.59.22-3.44.47-5.3.7L31,31.1a17.38,17.38,0,0,1,5.47,2.56L30.68,36.8A8.72,8.72,0,0,0,27.45,36.57ZM13.26,44.81a27.51,27.51,0,0,1,9.81-3.9l-7,3.81A5.38,5.38,0,0,1,13.26,44.81Zm10.92-2.23a25.7,25.7,0,0,0-3.5.76l4.78-2.58,0,0a21.6,21.6,0,0,1,7,1.57l-2.39,1.27A10.27,10.27,0,0,0,24.18,42.58Zm9.92,3.05a5,5,0,0,1-2-.9c-.3-.18-.65-.39-1-.59l2.46-1.31a17.17,17.17,0,0,1,4.64,3.23.42.42,0,0,0,.2.1l-1.51.78A3.77,3.77,0,0,0,34.1,45.63Zm3.5,2.09,5.79-3c.16,1.67.27,3.63.33,5.64L39,52.92a7.8,7.8,0,0,0-.08-3.13A10.87,10.87,0,0,0,37.6,47.72Zm1.23,6.42,4.93-2.66c0,1.63.06,3.26.06,4.77L37.9,59.44C38.24,57.75,38.6,55.84,38.83,54.14Zm4.43-10.48-4.2,2.17a.46.46,0,0,0,0-.26,13.43,13.43,0,0,0-2.18-4.49l4.58-2.44a14.15,14.15,0,0,1,1.08,1.81A12.42,12.42,0,0,1,43.26,43.66Zm-2.39-5.84-4.62,2.46A11.42,11.42,0,0,0,32,37.23l5.41-2.92A20.11,20.11,0,0,1,40.87,37.82ZM25.73,30.57a17.1,17.1,0,0,1,3.77.21L15.68,38.1c-2,.23-3.79.42-5.08.51C12.61,36.46,18.42,31,25.73,30.57Z"></path></svg>