<svg id="undefined" xmlns="http://www.w3.org/2000/svg" viewBox="0 0 64 64" width="24" height="24" class="vds-svg"><path id="undefined" class="cls-1" d="M16.44,25.05a.55.55,0,0,0,.4-.18L26.78,14a8.77,8.77,0,0,0,0-11.56A7.22,7.22,0,0,0,21.43,0a7.14,7.14,0,0,0-5,2.06,7.14,7.14,0,0,0-5-2.06A7.22,7.22,0,0,0,6.1,2.42,8.77,8.77,0,0,0,6.1,14L16,24.87A.55.55,0,0,0,16.44,25.05ZM6.91,3.15A6,6,0,0,1,16,3.21a.54.54,0,0,0,.43.15h0a.63.63,0,0,0,.43-.21,6,6,0,0,1,9.07,0,7.65,7.65,0,0,1,0,10.1L16.44,23.69,6.91,13.25A7.65,7.65,0,0,1,6.91,3.15ZM49.7,39.35a.54.54,0,0,1-.36.68,5,5,0,0,1-1.52.24A5.42,5.42,0,0,1,45,39.4a.56.56,0,0,1-.18-.75.55.55,0,0,1,.75-.18A4.12,4.12,0,0,0,49,39,.55.55,0,0,1,49.7,39.35ZM20.48,39c.55,2.14,1.23,7.72-4.88,11.87a12.83,12.83,0,0,0-5,6.49.56.56,0,0,1-.51.36.71.71,0,0,1-.2,0,.54.54,0,0,1-.31-.7,13.84,13.84,0,0,1,5.37-7c6.91-4.7,4.32-11.16,4.21-11.43a.85.85,0,0,1,0-.17,16.27,16.27,0,0,1-8.82-13.41.54.54,0,0,1,.49-.59.55.55,0,0,1,.59.49,15.25,15.25,0,0,0,10.72,13.6A.54.54,0,0,1,22,39.49l-.14,0A11.37,11.37,0,0,1,20.48,39ZM57,30.38a1.86,1.86,0,0,1-.89,1.23,5,5,0,0,1-1.7.57c-.37,0-.79.47-.76.75,0,2.12-.36,9.07-3.34,11.88a4.19,4.19,0,0,1-3,1.22h-.19a17,17,0,0,1-6.2-1.64.48.48,0,0,1-.09.3c-.79,1.15-2.74,4.49-2.24,6a1,1,0,0,0,.65.66l.13.07h0a.47.47,0,0,1,.1.1,13.76,13.76,0,0,1,6.8,1.22,10.11,10.11,0,0,1,4.65,4.9c.74,1.63,1.52,3.3,2.63,5.62a.55.55,0,0,1-.26.73.68.68,0,0,1-.23,0,.57.57,0,0,1-.5-.31c-1.1-2.33-1.89-4-2.63-5.64a9.11,9.11,0,0,0-4.15-4.38,13,13,0,0,0-6.59-1.09h-.11A5.44,5.44,0,0,1,35.21,54c-5.4,0-13.06-4.38-13.48-4.63a.54.54,0,1,1,.54-.94c3.46,2,12.71,6.32,15.91,3.61a2,2,0,0,1-.63-.93c-.75-2.34,2.06-6.53,2.39-7a.52.52,0,0,1,.11-.1,16.37,16.37,0,0,1-3.47-2.39.54.54,0,0,1,0-.77.52.52,0,0,1,.76,0,16.93,16.93,0,0,0,9.84,4.16A3.13,3.13,0,0,0,49.53,44c2.12-2,2.94-7,3-11.05a2,2,0,0,1,1.69-1.87,3.74,3.74,0,0,0,1.32-.44.74.74,0,0,0,.36-.49.66.66,0,0,0-.13-.56L52.59,25.7A2.08,2.08,0,0,1,52,24.29a1.3,1.3,0,0,1,.06-.46c.22-.74.17-5.95-1-8.3a.54.54,0,0,1,.25-.73.54.54,0,0,1,.73.25c1.25,2.55,1.35,8.06,1,9.09,0,.05,0,.08,0,.1a1.05,1.05,0,0,0,.33.72l3.25,4A1.82,1.82,0,0,1,57,30.38Zm-26-5.68c13.26,1.08,16.34-11.82,16.47-12.37a.54.54,0,0,1,.65-.41.54.54,0,0,1,.41.65c0,.14-3.13,13.29-16,13.29l-.78,0,.09.15a.54.54,0,0,1-.26.72.55.55,0,0,1-.73-.26,3.91,3.91,0,0,0-4.21-2.28,3.08,3.08,0,0,0-2.5,3.05,4.68,4.68,0,0,0,.49,2.69c.92,1.54,3.18,1.46,4.84.92a.55.55,0,0,1,.69.35.56.56,0,0,1-.35.69,8.15,8.15,0,0,1-2.44.39,4,4,0,0,1-3.68-1.8A5.6,5.6,0,0,1,23,27.14a4.16,4.16,0,0,1,3.38-4.05A4.93,4.93,0,0,1,30.92,24.7Zm.69-24a.54.54,0,0,1,.52-.57c.2,0,21-.7,23.57,16.59a.54.54,0,0,1-.46.62h-.08a.56.56,0,0,1-.54-.47c-1-6.82-5-11.53-12-14a31.42,31.42,0,0,0-10.4-1.67A.51.51,0,0,1,31.61.69Z"></path></svg>