<svg id="undefined" xmlns="http://www.w3.org/2000/svg" viewBox="0 0 64 64" width="64" height="64" class="vds-svg"><path id="undefined" d="M54,44a11.37,11.37,0,0,0-2.43-5.36c2.15-3.27,2.87-6.25,2.11-8.86a.49.49,0,0,0-.62-.35.51.51,0,0,0-.34.62c.66,2.27,0,4.91-1.85,7.84a11.33,11.33,0,0,0-8.49-2.64,7.67,7.67,0,0,0-2-3.22,14.35,14.35,0,0,0,.9-3.42.5.5,0,1,0-1-.13,13.88,13.88,0,0,1-.71,2.86,9.5,9.5,0,0,0-2.12-1.21.5.5,0,0,0-.38.93c6.39,2.63,4.55,9.43,4.47,9.71a.5.5,0,0,0,.35.62l.13,0a.49.49,0,0,0,.48-.36,11.53,11.53,0,0,0,.1-4.83c1.37-.11,5.21-.14,7.89,2.72a.37.37,0,0,0,.12.13A10.34,10.34,0,0,1,53,44.13,9.09,9.09,0,0,1,50.44,52,10.49,10.49,0,0,1,43,55a9.71,9.71,0,0,0-1.71-6.87.5.5,0,0,0-.69-.14.49.49,0,0,0-.14.69c1.92,2.94,2.19,6,.73,8.46a7.56,7.56,0,0,1-7.31,3.42c-6-.54-6.24-6.9-6.25-7.16V17.24a9,9,0,0,1,1.9-5,.5.5,0,0,0-.76-.66,8.79,8.79,0,0,0-1.65,3,7.41,7.41,0,0,0-6.65-5.51,8.39,8.39,0,0,0-9,5.56c-1.18.12-4.88.71-6.78,3.47-1.26,1.84-1.46,4.23-.58,7.12a8,8,0,0,0-3.6,4.69c-.69,2.58,0,5.51,2.15,8.72A11.55,11.55,0,0,0,.21,44a10.06,10.06,0,0,0,2.85,8.68A11.49,11.49,0,0,0,10.91,56c.2,0,.37,0,.56,0a7.59,7.59,0,0,0,.72,1.66,8.4,8.4,0,0,0,7.35,4c.3,0,.6,0,.9,0A7.4,7.4,0,0,0,27.1,56a7.4,7.4,0,0,0,6.66,5.54c.3,0,.6,0,.9,0a8.4,8.4,0,0,0,7.35-4A7.14,7.14,0,0,0,42.73,56c.19,0,.37,0,.56,0a11.46,11.46,0,0,0,7.85-3.32A10.06,10.06,0,0,0,54,44ZM20.35,60.55a7.53,7.53,0,0,1-7.3-3.42c-1.46-2.44-1.2-5.52.73-8.46a.5.5,0,0,0-.84-.55A9.7,9.7,0,0,0,11.24,55a10.5,10.5,0,0,1-7.48-3A9.05,9.05,0,0,1,1.2,44.17c1.57-8.11,8.43-8.13,10.37-8a11.72,11.72,0,0,0,.1,4.83.49.49,0,0,0,.48.36l.14,0a.5.5,0,0,0,.34-.62c-.08-.28-1.92-7.08,4.47-9.71a.5.5,0,1,0-.38-.93,9.63,9.63,0,0,0-2.11,1.2c-2.28-6.39,1.07-8.81,1.23-8.92a.5.5,0,1,0-.55-.83c-.19.12-4.32,3-1.49,10.45a7.78,7.78,0,0,0-2,3.22,11.29,11.29,0,0,0-8.48,2.65C1.51,35,.86,32.41,1.45,30.18a7.17,7.17,0,0,1,3.46-4.27.5.5,0,0,0,.25-.61c-.91-2.75-.8-5,.33-6.62,2-2.84,6.33-3.07,6.37-3.08a.49.49,0,0,0,.46-.37c.86-3.33,4.23-5.49,8-5.16,6,.54,6.24,6.9,6.25,7.16V53.38C26.59,53.65,26.36,60,20.35,60.55Zm27-28.63A.54.54,0,0,1,47,31.8C46.58,31.4,36.1,22.05,33.26,18c-3.2-4.59-3.18-9.64.05-12.88a9.16,9.16,0,0,1,12.93,0L47.36,6.2l1.11-1.12a9.16,9.16,0,0,1,12.93,0c3.27,3.28,3.29,8.58.05,12.9-3,4-13.32,13.41-13.76,13.81A.46.46,0,0,1,47.36,31.92ZM39.78,3.41A8.1,8.1,0,0,0,34,5.79c-3.49,3.49-2.15,8.43.06,11.6C36.58,21,45.5,29.08,47.35,30.75c1.83-1.69,10.66-9.87,13.3-13.37,2.48-3.31,3.46-8.17,0-11.59a8.15,8.15,0,0,0-11.51,0L47.71,7.26a.5.5,0,0,1-.35.14h0A.52.52,0,0,1,47,7.26L45.54,5.79A8.1,8.1,0,0,0,39.78,3.41Zm12.29,13a.5.5,0,0,1-.5.5h-3.7v3.69a.51.51,0,0,1-.5.5.5.5,0,0,1-.5-.5V16.87H43.2a.5.5,0,0,1,0-1h3.67V12.19a.5.5,0,0,1,.5-.5.5.5,0,0,1,.5.5v3.68h3.7A.5.5,0,0,1,52.07,16.37Z"></path></svg>