<svg id="undefined" data-name="Capa 2" xmlns="http://www.w3.org/2000/svg" viewBox="0 0 64 64" class="vds-svg">
    <path id="undefined" class="cls-2" d="m64,35.72c0,.28-.22.5-.5.5h-4.52c-.17-.02-8.78-1.47-14.86-1.76-.28-.01-.49-.25-.48-.52.01-.28.24-.5.52-.47,6.15.29,14.82,1.75,14.9,1.76h4.43c.28,0,.5.22.5.49Zm-7.55,8.38v17.95c0,.53.43.95.95.95h6.09c.28,0,.5.22.5.5s-.22.5-.5.5h-6.09c-1.08,0-1.96-.88-1.96-1.95v-17.95c0-.35.1-.67.26-.95H21.41c-1.08,0-1.96-.88-1.96-1.95v-2.35c0-.9.62-1.65,1.45-1.88-.44-.41-.85-.84-1.18-1.32-1.12-1.6-1.42-3.4-.86-5.07,1.13-3.38,2.41-5.28,3.81-5.65.67-.18,1.33-.03,1.97.46l1.81-.65c.49-.18,1-.1,1.41-.05.15.02.35.05.41.04.07-.04.45-.31.73-.51,1.33-.96,1.79-1.25,2.22-1,.31.18.5.64.61,1.09.47.02,1.25.08,1.86.24.71.19,1.24.06,1.25.06.07-.02.14-.02.21,0,.06,0,.55.1.88.6.29.45.35,1.05.16,1.8-.07.29,0,.48.26.67.6.42,1.77.42,2.04.24.12-.08.31-.26.56-.49,1.16-1.06,3.59-3.26,7.06-4.03,4.16-.92,16.84-1.21,17.37-1.22.31,0,.51.21.51.49s-.21.5-.49.51c-.13,0-13.11.29-17.18,1.2-3.22.71-5.51,2.79-6.61,3.79-.3.27-.52.47-.68.58-.64.42-2.26.39-3.17-.26-.6-.42-.83-1.03-.66-1.72.11-.45.1-.81-.03-1.01-.05-.07-.11-.12-.15-.14-.28.05-.87.11-1.6-.09-.79-.21-2-.22-2.01-.22-.24,0-.45-.17-.49-.41-.04-.23-.11-.49-.18-.66-.32.18-.85.57-1.16.8-.59.43-.83.59-1.01.66-.26.09-.54.05-.86,0-.31-.04-.67-.09-.92,0l-1.9.69c.16.11.24.31.2.51,0,.01-.3,1.4.24,2.43.18.35.63.45,1.35.6.81.16,1.81.37,2.6,1.21,1.43,0,1.9,0,1.91,0h0c.22,0,.42.15.48.37l.29,1.04c.04.16,0,.32-.09.45-.1.13-.26.21-.42.19-.51-.02-1.92.05-2.4.72-.15.2-.23,1.01.12,1.38.41.43,1.47.16,2.84-.72.42-.46,1.25-.64,2.11-.44.97.22,1.68.85,1.99,1.69l1.61.19c.19.02.34.15.41.32.04.11.08.27.12.45.12.55.31,1.39,1.2,2.25,1.82,1.63,13.94,2.23,23.99,1.19.27-.03.52.17.55.44.03.27-.17.52-.45.55-3.2.33-7.08.53-10.82.53-6.39,0-12.38-.57-13.96-1.97-1.13-1.07-1.36-2.13-1.5-2.76,0-.01,0-.03,0-.04l-1.33-.16c-.74.71-3.61,3.13-8.24,2.97-2.15-.07-4.25-.82-5.9-2.02-.09.12-.23.19-.39.19-.53,0-.96.43-.96.95v2.35c0,.53.43.95.96.95h42.09c.28,0,.5.22.5.5s-.22.5-.5.5h-6.09c-.53,0-.95.43-.95.95Zm-35.91-9.03c1.47,2.11,4.29,3.54,7.19,3.64,4.13.17,6.75-1.98,7.45-2.64-.28-.73-.98-.97-1.29-1.04-.58-.13-1.05,0-1.16.15-.03.04-.08.08-.12.11-2.42,1.58-3.61,1.21-4.17.62-.73-.76-.6-2.1-.21-2.65.61-.84,1.81-1.07,2.58-1.12v-.05c-.34,0-.9,0-1.77,0-.15,0-.29-.07-.39-.18-.59-.72-1.4-.88-2.19-1.04-.8-.16-1.62-.33-2.03-1.11-.71-1.36-.35-3.04-.33-3.11.03-.12.1-.21.19-.28-.03-.02-.06-.02-.09-.04-.45-.4-.87-.54-1.28-.43-.59.16-1.78,1.02-3.11,5.01-.59,1.75.08,3.24.73,4.19Zm7.89-24c6.86,0,13.16,4.78,16.04,12.18.1.26.39.39.65.28.26-.1.39-.39.29-.65-3.03-7.78-9.69-12.81-16.97-12.81-10.29,0-18.66,9.84-18.66,21.94s8.37,21.94,18.66,21.94c6.33,0,12.17-3.72,15.63-9.95.13-.24.05-.55-.2-.68-.24-.13-.55-.05-.68.2-3.28,5.91-8.8,9.44-14.75,9.44-9.73,0-17.65-9.39-17.65-20.94s7.92-20.94,17.65-20.94Zm23.49,32.73c-.26-.09-.55.04-.64.3-4.11,11.49-13.58,18.91-24.11,18.91-.21,0-.43-.01-.64-.02-.24,0-.47,0-.71-.02-.3-.02-.61-.05-.91-.08-.14-.01-.28-.02-.42-.04-3.94-.47-7.62-1.99-10.85-4.3-.01,0-.03-.02-.04-.03-.24-.17-.48-.36-.72-.54-.11-.09-.23-.17-.35-.26-.28-.22-.55-.45-.81-.69-.07-.06-.14-.12-.21-.18-.6-.53-1.17-1.09-1.73-1.68-.07-.07-.14-.14-.21-.22-.12-.13-.24-.27-.36-.41-.18-.21-.37-.41-.55-.62-.11-.13-.21-.26-.31-.39-.19-.23-.37-.45-.56-.69-.07-.09-.13-.18-.2-.27-.21-.28-.42-.56-.63-.86-.01-.01-.02-.03-.03-.04-1.32-1.9-2.46-3.99-3.37-6.23-.05-.14-.1-.27-.16-.41-.13-.32-.25-.64-.37-.96,0,0,0,0,0,0-.65-1.82-1.16-3.73-1.51-5.71-.26-1.47-.43-2.99-.5-4.53-.03-.6-.05-1.2-.05-1.81,0-.65.02-1.3.06-1.94.05-.94.13-1.86.25-2.77C3.21,12.6,13.86,1.27,26.75,1.02c.14,0,.29-.01.43-.01,11.15,0,21.09,8.38,24.74,20.85.08.26.35.42.62.34.26-.08.42-.35.34-.62C49.1,8.68,38.77,0,27.18,0H6.96c-.28,0-.5.22-.5.5s.22.5.5.5h13.47s0,0,0,0c-.66.2-1.32.44-1.96.7-.11.04-.22.08-.32.13-.62.26-1.23.54-1.83.85-.1.05-.2.11-.31.16-.61.33-1.22.67-1.81,1.05-.01,0-.02.02-.03.02-.59.38-1.16.79-1.71,1.21-.08.06-.17.12-.25.19-.54.42-1.07.87-1.58,1.34-.09.08-.18.17-.27.25-.52.48-1.02.98-1.51,1.51-.04.04-.07.08-.1.12-.47.52-.93,1.05-1.37,1.6-.06.07-.11.14-.17.21-.44.56-.86,1.15-1.27,1.75-.07.11-.15.22-.22.33-.4.61-.79,1.23-1.15,1.87-.04.08-.08.15-.12.23-.35.63-.68,1.27-.99,1.93-.03.07-.07.13-.1.2-.32.68-.61,1.37-.88,2.08-.05.13-.1.26-.15.4-.26.7-.51,1.42-.73,2.14-.03.11-.06.23-.1.34-.21.73-.41,1.46-.58,2.21-.01.05-.02.09-.03.14-.17.77-.31,1.55-.43,2.34-.02.15-.05.3-.07.44-.11.77-.2,1.55-.26,2.34-.01.14-.02.29-.03.43-.05.83-.09,1.66-.09,2.5s.04,1.67.09,2.5c0,.14.02.29.03.43.06.79.15,1.57.26,2.34.02.15.05.3.07.45.12.79.26,1.57.43,2.33.01.05.03.1.04.16.17.74.36,1.47.57,2.19.03.12.07.24.1.36.22.72.46,1.43.72,2.13.05.14.11.28.16.41.27.7.56,1.39.87,2.06.04.08.07.15.11.23.31.64.63,1.27.97,1.89.05.09.09.17.14.26.36.63.74,1.24,1.13,1.84.08.12.16.24.24.36.4.59.82,1.17,1.25,1.72.06.08.13.16.2.24.43.54.87,1.06,1.33,1.56.05.05.09.1.14.15.48.52.98,1.01,1.48,1.48.1.09.2.19.3.28.51.46,1.02.9,1.56,1.31.09.07.19.14.28.21.54.41,1.09.81,1.66,1.17.03.02.05.04.08.05.58.37,1.18.71,1.78,1.04.11.06.22.12.34.18.59.3,1.19.58,1.8.84.12.05.23.09.35.14.64.25,1.28.49,1.94.69,0,0,0,0,.01,0H6.96c-.28,0-.5.22-.5.5s.22.5.5.5h20.22c10.96,0,20.79-7.68,25.05-19.57.09-.26-.04-.55-.3-.64Z"></path>
</svg>