<svg id="undefined" xmlns="http://www.w3.org/2000/svg" viewBox="0 0 64 64" width="64" height="64" class="vds-svg"><path id="undefined" class="cls-2" d="M14.7,19.07V12.84a.5.5,0,0,1,.5-.5h6.23a.5.5,0,0,1,.5.5.5.5,0,0,1-.5.5H15.7v5.73a.5.5,0,0,1-.5.5A.5.5,0,0,1,14.7,19.07ZM48.75,42a.5.5,0,0,0-.5.5v5.73H42.52a.5.5,0,0,0,0,1h6.23a.5.5,0,0,0,.5-.5V42.5A.5.5,0,0,0,48.75,42ZM42.52,13.34h5.73v5.73a.5.5,0,0,0,1,0V12.84a.5.5,0,0,0-.5-.5H42.52a.5.5,0,0,0-.5.5A.5.5,0,0,0,42.52,13.34ZM21.43,48.23H15.7V42.5a.5.5,0,0,0-.5-.5.5.5,0,0,0-.5.5v6.23a.5.5,0,0,0,.5.5h6.23a.5.5,0,0,0,0-1Zm1.22-31a2.48,2.48,0,0,0-.74,1.84c0,3.66,7.61,5.17,8.48,5.33h.09A.49.49,0,0,0,31,24a.5.5,0,0,0-.4-.58c-2.13-.39-7.67-2-7.66-4.35A1.46,1.46,0,0,1,23.35,18a3.67,3.67,0,0,1,2.22-.7.47.47,0,0,0,.52-.48.5.5,0,0,0-.48-.52A4.63,4.63,0,0,0,22.65,17.23Zm-2.21,4.06a.51.51,0,0,0-.66.26A2.89,2.89,0,0,0,20,24c1.11,2,4.26,3.51,9.36,4.35h.08a.5.5,0,0,0,.08-1c-5.9-1-7.95-2.6-8.62-3.8a2,2,0,0,1-.24-1.59A.5.5,0,0,0,20.44,21.29ZM29.5,31.5c-2.49-.08-9.2-.77-10.42-3.05a2,2,0,0,1,.25-2,.48.48,0,0,0-.16-.68.49.49,0,0,0-.69.16,2.91,2.91,0,0,0-.28,3c1.72,3.19,10.29,3.54,11.27,3.57h0a.5.5,0,0,0,0-1ZM29.18,35c-2,1.48-7.85,1.75-10.06,0a2.15,2.15,0,0,1-.58-2.81.52.52,0,0,0-.27-.66.49.49,0,0,0-.65.27,3.14,3.14,0,0,0,.88,4A9.35,9.35,0,0,0,24,37.21a10.62,10.62,0,0,0,5.79-1.41.5.5,0,0,0,.1-.7A.5.5,0,0,0,29.18,35ZM26.1,38.37s-3,2.89-5.87,2.29a3.55,3.55,0,0,1-2.9-3.13.53.53,0,0,0-.53-.46.5.5,0,0,0-.47.53,4.56,4.56,0,0,0,3.69,4,5,5,0,0,0,1,.1c2.95,0,5.62-2.53,5.75-2.65a.5.5,0,0,0-.69-.72ZM38.36,17.25h0a3.6,3.6,0,0,1,2.23.7A1.46,1.46,0,0,1,41,19.07c0,2.4-5.53,4-7.66,4.35a.5.5,0,0,0,.09,1h.09c.87-.16,8.48-1.67,8.48-5.33a2.45,2.45,0,0,0-.75-1.84,4.59,4.59,0,0,0-2.95-1,.5.5,0,0,0,0,1Zm-4,10.08a.51.51,0,0,0-.41.58.5.5,0,0,0,.49.42h.09c5.09-.84,8.24-2.31,9.36-4.35a2.86,2.86,0,0,0,.25-2.42.5.5,0,1,0-.91.4A1.93,1.93,0,0,1,43,23.49C42.37,24.7,40.34,26.35,34.38,27.33Zm.09,5.17h0c1,0,9.55-.38,11.27-3.57a2.9,2.9,0,0,0-.29-3,.48.48,0,0,0-.68-.16.49.49,0,0,0-.17.68,2,2,0,0,1,.26,2c-1.23,2.28-7.94,3-10.42,3.05a.5.5,0,0,0,0,1Zm11,3.29a3.14,3.14,0,0,0,.88-4,.5.5,0,1,0-.92.39A2.15,2.15,0,0,1,44.83,35c-2.27,1.77-8,1.51-10.07,0a.5.5,0,1,0-.59.8A10.58,10.58,0,0,0,40,37.21,9.35,9.35,0,0,0,45.45,35.79Zm-1.53,5.85a4.57,4.57,0,0,0,3.7-4,.5.5,0,0,0-.47-.53.49.49,0,0,0-.53.46,3.57,3.57,0,0,1-2.91,3.13c-2.82.61-5.83-2.26-5.86-2.29a.5.5,0,0,0-.71,0,.49.49,0,0,0,0,.7c.12.12,2.79,2.65,5.75,2.65A5,5,0,0,0,43.92,41.64ZM32.47,37.57V28.49A.5.5,0,0,0,32,28a.51.51,0,0,0-.5.5v9.08a.51.51,0,0,0,.5.5A.5.5,0,0,0,32.47,37.57ZM30.6,21.67h2.75a.51.51,0,0,0,.5-.5.5.5,0,0,0-.5-.5H30.6a.5.5,0,0,0-.5.5A.5.5,0,0,0,30.6,21.67Zm0-2.5h2.75a.5.5,0,0,0,0-1H30.6a.5.5,0,0,0,0,1Zm0-2.71h2.75a.5.5,0,0,0,0-1H30.6a.5.5,0,0,0,0,1Zm2.75,29H30.6a.5.5,0,0,0-.5.5.5.5,0,0,0,.5.5h2.75a.5.5,0,0,0,.5-.5A.51.51,0,0,0,33.35,45.47Zm0-2.49H30.6a.5.5,0,0,0-.5.5.5.5,0,0,0,.5.5h2.75a.51.51,0,0,0,.5-.5A.5.5,0,0,0,33.35,43Zm0-2.71H30.6a.5.5,0,0,0-.5.5.5.5,0,0,0,.5.5h2.75a.51.51,0,0,0,.5-.5A.5.5,0,0,0,33.35,40.27ZM60.75,64l-.14,0a.49.49,0,0,1-.48-.36,33.16,33.16,0,0,1-.62-5,162.76,162.76,0,0,0-.67-19.43l-4.44.92h-.1a.5.5,0,0,1-.1-1l4.88-1a.5.5,0,0,1,.13,0h.08c-.59-2.42-3.23-13-6-19.23V42c0,.22.42,4.43,2.76,17.33a.56.56,0,0,1-.08.38,4.75,4.75,0,0,0-.82,3.71.5.5,0,0,1-.35.61l-.13,0a.5.5,0,0,1-.48-.37A5.74,5.74,0,0,1,55,59.26c-.78-4.32-1.34-7.63-1.74-10.16v3.63a.5.5,0,0,1-.5.5H47.24L47,63.51a.5.5,0,0,1-.5.49h0a.51.51,0,0,1-.49-.51l.26-10.26H17.7L18,63.49a.5.5,0,0,1-.48.51h0a.51.51,0,0,1-.5-.49L16.7,53.23H11.19a.5.5,0,0,1-.5-.5V49.1c-.4,2.53-1,5.84-1.74,10.16a5.79,5.79,0,0,1,.84,4.37.5.5,0,0,1-.48.37l-.13,0a.5.5,0,0,1-.36-.61A4.72,4.72,0,0,0,8,59.66a.47.47,0,0,1-.08-.38c2.33-12.9,2.74-17.11,2.76-17.33V18.87c-2.81,6.18-5.45,16.81-6,19.23h.07a.57.57,0,0,1,.14,0l4.88,1a.49.49,0,0,1,.39.59.51.51,0,0,1-.49.4h-.1L5.1,39.21a165.74,165.74,0,0,0-.66,19.38,33.46,33.46,0,0,1-.62,5,.51.51,0,0,1-.48.36L3.2,64a.5.5,0,0,1-.34-.62,35.44,35.44,0,0,0,.58-4.8A163.92,163.92,0,0,1,4.12,39L4,39a.52.52,0,0,1-.32-.22.53.53,0,0,1-.07-.39c.15-.62,3.59-15.32,7.13-21.74V8.84a.5.5,0,0,1,.5-.5H25.32l.58-6.61c-.18-.32-.36-.64-.54-1a.49.49,0,0,1,.22-.67.5.5,0,0,1,.67.21C28.47,4.63,29.91,5,31.42,5S35.07,4.42,37.3.26A.49.49,0,0,1,38,.06a.5.5,0,0,1,.21.68c-.19.35-.38.66-.57,1l.84,6.62H52.76a.5.5,0,0,1,.5.5v7.79c3.54,6.42,7,21.12,7.12,21.74a.53.53,0,0,1-.06.39A.55.55,0,0,1,60,39l-.17,0a163.11,163.11,0,0,1,.67,19.6,33.38,33.38,0,0,0,.59,4.75A.51.51,0,0,1,60.75,64ZM26.33,8.34H37.44L36.76,3C35.21,5,33.5,6,31.42,6c-1.67,0-3.06-.53-4.64-2.83Zm25.93,1H11.69V52.23H52.26Z"></path></svg>