<svg id="undefined" xmlns="http://www.w3.org/2000/svg" viewBox="0 0 64 64" width="64" height="64" class="vds-svg"><path id="undefined" class="cls-2" d="M35.25,58.37v.83a4.79,4.79,0,0,1-1.57,3.55A4.7,4.7,0,0,1,30.46,64L30,64a4.93,4.93,0,0,1-4.33-5v-.31A1.7,1.7,0,0,0,24,57a8.59,8.59,0,0,1-8.6-8.87,8.85,8.85,0,0,1,8.94-8.34H26.8V25A6,6,0,0,0,21.21,19a7.08,7.08,0,0,1-7,6.1.5.5,0,0,1-.5-.5.5.5,0,0,1,.5-.5,6.08,6.08,0,0,0,0-12.16.5.5,0,0,1,0-1A7.09,7.09,0,0,1,21.29,18a6.91,6.91,0,0,1,5.51,3.35V14A6,6,0,0,0,21.22,8a7,7,0,0,1-2,4,.5.5,0,0,1-.71,0,.48.48,0,0,1,0-.7,6.09,6.09,0,0,0,0-8.6,6.15,6.15,0,0,0-8.61,0A20.88,20.88,0,0,0,3.05,18a20.89,20.89,0,0,0,6.83,15.2,6.16,6.16,0,0,0,8.63,0,6.08,6.08,0,0,0,0-8.6.48.48,0,0,1,0-.7.5.5,0,0,1,.71,0,7.07,7.07,0,0,1-5,12.07,7.29,7.29,0,0,1-5-2A21.84,21.84,0,0,1,2.05,18,21.83,21.83,0,0,1,9.21,2a7.15,7.15,0,0,1,10,0,7,7,0,0,1,2.07,5A7,7,0,0,1,27.8,14V39.8h5.3V14A7,7,0,0,1,39.62,7a7,7,0,0,1,2.07-5,7.14,7.14,0,0,1,10,0A21.85,21.85,0,0,1,58.86,18a21.84,21.84,0,0,1-7.15,15.92,7.32,7.32,0,0,1-5,2,7.06,7.06,0,0,1-5-12.07.5.5,0,0,1,.71,0,.5.5,0,0,1,0,.7,6.06,6.06,0,0,0,0,8.6,6.15,6.15,0,0,0,8.62,0A20.87,20.87,0,0,0,57.86,18,20.92,20.92,0,0,0,51,2.75a6.15,6.15,0,0,0-8.61,0,6.07,6.07,0,0,0,0,8.6.5.5,0,0,1,0,.7.5.5,0,0,1-.71,0,6.92,6.92,0,0,1-2-4A6,6,0,0,0,34.1,14v7.42A6.93,6.93,0,0,1,39.61,18,7.09,7.09,0,0,1,46.7,11a.5.5,0,0,1,0,1,6.08,6.08,0,1,0,0,12.16.51.51,0,0,1,.5.5.5.5,0,0,1-.5.5,7.09,7.09,0,0,1-7-6.1A6,6,0,0,0,34.1,25V39.8H37a.5.5,0,0,1,.5.5.5.5,0,0,1-.5.5H24.29a7.83,7.83,0,0,0-7.94,7.37A7.6,7.6,0,0,0,24,56a2.7,2.7,0,0,1,2.7,2.7V59a3.93,3.93,0,0,0,3.43,4A3.75,3.75,0,0,0,33,62a3.8,3.8,0,0,0,1.24-2.81v-.83a.5.5,0,0,1,.5-.5A.5.5,0,0,1,35.25,58.37ZM62,50.2a13.8,13.8,0,1,1-13.8-13.8A13.81,13.81,0,0,1,62,50.2Zm-1,0A12.8,12.8,0,1,0,48.15,63,12.81,12.81,0,0,0,61,50.2Zm-4.52,6.58a.5.5,0,0,1,.22.43.49.49,0,0,1-.24.42,9.88,9.88,0,0,1-4.75,1.09c-.31,0-.51,0-.54,0a.45.45,0,0,1-.25-.09A26.44,26.44,0,0,1,48,56.2a12.1,12.1,0,0,1-2.57,2.42.54.54,0,0,1-.28.08c-.7,0-4.26-.05-5.35-1.14a.52.52,0,0,1-.15-.4.53.53,0,0,1,.22-.37,20.63,20.63,0,0,0,4.73-4.67,11.23,11.23,0,0,1-2-5.92,5.16,5.16,0,0,1,5.5-5.5,5.26,5.26,0,0,1,5.5,5.5,9.67,9.67,0,0,1-2.47,6A32.54,32.54,0,0,0,56.43,56.78ZM51.55,43.12a17.23,17.23,0,0,1-2.79,6.14,26.52,26.52,0,0,0,1.74,2.21,8.47,8.47,0,0,0,2.15-5.27A4.51,4.51,0,0,0,51.55,43.12Zm-3.38,5.27A15.82,15.82,0,0,0,49.53,46a4.07,4.07,0,0,0-1.38-.27,3.66,3.66,0,0,0-1.31.24A17.48,17.48,0,0,0,48.17,48.39Zm-2.5-6.1A14.52,14.52,0,0,0,46.45,45a4.5,4.5,0,0,1,1.7-.32,4.87,4.87,0,0,1,1.77.36,8.94,8.94,0,0,0,.72-2.7,4.74,4.74,0,0,0-2.49-.66A5.08,5.08,0,0,0,45.67,42.29Zm1.62,13.2A22,22,0,0,1,45.2,53a20.81,20.81,0,0,1-4.15,4.16,13.72,13.72,0,0,0,4,.54A10.87,10.87,0,0,0,47.29,55.49Zm7.88,1.64c-1.89-1.38-7-5.49-9.41-11.13,0,0,0,0,0-.07a.44.44,0,0,1-.05-.15A16.72,16.72,0,0,1,44.79,43a4.55,4.55,0,0,0-1.14,3.21c0,3.4,2.41,6.6,4.55,8.77h0a.52.52,0,0,1,.16.17,27.17,27.17,0,0,0,2.94,2.56A10.53,10.53,0,0,0,55.17,57.13Z"></path></svg>