<svg id="undefined" xmlns="http://www.w3.org/2000/svg" viewBox="0 0 64 64" width="64" height="64" class="vds-svg"><path id="undefined" class="cls-2" d="M53.24,2a7.15,7.15,0,0,0-10,0,7,7,0,0,0-2.08,5A7,7,0,0,0,34.65,14V39.79h-5.3V14A7,7,0,0,0,22.84,7a7,7,0,0,0-2.08-5,7.15,7.15,0,0,0-10,0A21.88,21.88,0,0,0,3.59,18a21.81,21.81,0,0,0,7.16,15.92,7.33,7.33,0,0,0,5,2,7.06,7.06,0,0,0,5-12.07.49.49,0,1,0-.7.7,6.09,6.09,0,0,1,0,8.6,6.16,6.16,0,0,1-8.63,0A20.83,20.83,0,0,1,4.59,18,20.89,20.89,0,0,1,11.45,2.75a6.16,6.16,0,0,1,8.61,0,6.09,6.09,0,0,1,0,8.6.5.5,0,0,0,0,.71.48.48,0,0,0,.7,0,7,7,0,0,0,2-4A6,6,0,0,1,28.35,14v7.42A6.91,6.91,0,0,0,22.84,18,7.09,7.09,0,0,0,15.76,11a.5.5,0,0,0-.5.5.5.5,0,0,0,.5.5,6.08,6.08,0,1,1,0,12.16.5.5,0,0,0,0,1,7.08,7.08,0,0,0,7-6.1A6,6,0,0,1,28.35,25V39.79H25.84a8.85,8.85,0,0,0-8.94,8.35A8.59,8.59,0,0,0,25.5,57a1.7,1.7,0,0,1,1.7,1.7V59a4.94,4.94,0,0,0,4.33,5L32,64a4.74,4.74,0,0,0,3.22-1.25A4.8,4.8,0,0,0,36.8,59.2v-.83A1.36,1.36,0,0,1,38.16,57a8.83,8.83,0,0,0,8.94-8.34,8.61,8.61,0,0,0-8.6-8.88H35.65V25A6,6,0,0,1,41.24,19a7.08,7.08,0,0,0,7,6.1.5.5,0,0,0,0-1,6.08,6.08,0,0,1,0-12.16.5.5,0,0,0,.5-.5.5.5,0,0,0-.5-.5A7.09,7.09,0,0,0,41.16,18a6.91,6.91,0,0,0-5.51,3.35V14A6,6,0,0,1,41.24,8a7,7,0,0,0,2,4,.48.48,0,0,0,.7,0,.5.5,0,0,0,0-.71,6.09,6.09,0,0,1,0-8.6,6.16,6.16,0,0,1,8.61,0A20.89,20.89,0,0,1,59.41,18a20.83,20.83,0,0,1-6.84,15.19,6.16,6.16,0,0,1-8.63,0,6.09,6.09,0,0,1,0-8.6.49.49,0,1,0-.7-.7,7.07,7.07,0,0,0,5,12.07,7.29,7.29,0,0,0,5-2A21.81,21.81,0,0,0,60.41,18,21.88,21.88,0,0,0,53.24,2ZM44,43.1a7.52,7.52,0,0,1,2.14,5.54A7.84,7.84,0,0,1,38.16,56a2.36,2.36,0,0,0-2.36,2.36v.83A3.8,3.8,0,0,1,34.56,62a3.71,3.71,0,0,1-2.94,1,3.92,3.92,0,0,1-3.42-4v-.3A2.7,2.7,0,0,0,25.5,56a7.6,7.6,0,0,1-7.6-7.84,7.84,7.84,0,0,1,7.94-7.38H38.5A7.55,7.55,0,0,1,44,43.1Z"></path></svg>